<svg height="385pt" viewBox="-13 0 385 385.017" width="385pt" xmlns="http://www.w3.org/2000/svg"><path d="m13.285156 0h252.238282c7.332031 0 13.277343 5.945312 13.277343 13.277344v358.445312c0 7.332032-5.941406 13.277344-13.277343 13.277344h-252.238282c-7.332031 0-13.2773435-5.945312-13.2773435-13.277344v-358.445312c0-7.332032 5.9453125-13.277344 13.2773435-13.277344zm0 0" fill="#fdbd40"/><path d="m252.25 318.621094-39.828125 39.828125h-185.863281v-292.070313h225.691406zm0 0" fill="#f4f4e6"/><path d="m185.871094 53.105469c-15.125-25.664063-48.1875-34.207031-73.847656-19.085938-7.878907 4.640625-14.445313 11.207031-19.085938 19.085938h-19.914062c-3.664063 0-6.636719 2.96875-6.636719 6.636719v33.1875h146.035156v-33.1875c0-3.667969-2.972656-6.636719-6.636719-6.636719zm0 0" fill="#d9176c"/><path d="m245.613281 46.464844c-7.332031 0-13.277343-5.941406-13.277343-13.273438 0-7.332031 5.945312-13.277344 13.277343-13.277344s13.273438 5.945313 13.273438 13.277344c-.007813 7.328125-5.945313 13.265625-13.273438 13.273438zm0-13.28125" fill="#d9176c"/><path d="m252.25 318.621094-39.828125 39.828125v-39.828125zm0 0" fill="#aabece"/><g fill="#2d75bb"><path d="m92.9375 152.671875c0 11-8.914062 19.914063-19.914062 19.914063-10.996094 0-19.914063-8.914063-19.914063-19.914063 0-10.996094 8.917969-19.914063 19.914063-19.914063 11 0 19.914062 8.917969 19.914062 19.914063zm0 0"/><path d="m92.9375 219.050781c0 11-8.914062 19.914063-19.914062 19.914063-10.996094 0-19.914063-8.914063-19.914063-19.914063 0-10.996093 8.917969-19.914062 19.914063-19.914062 11 0 19.914062 8.917969 19.914062 19.914062zm0 0"/><path d="m92.9375 285.433594c0 10.996094-8.914062 19.914062-19.914062 19.914062-10.996094 0-19.914063-8.917968-19.914063-19.914062 0-11 8.917969-19.914063 19.914063-19.914063 11 0 19.914062 8.914063 19.914062 19.914063zm0 0"/><path d="m112.851562 152.671875h106.207032v13.277344h-106.207032zm0 0"/><path d="m112.851562 219.050781h106.207032v13.277344h-106.207032zm0 0"/><path d="m112.851562 285.433594h106.207032v13.273437h-106.207032zm0 0"/></g><path d="m318.628906 79.65625h39.828125v232.328125h-39.828125zm0 0" fill="#32b1cc"/><path d="m318.628906 53.105469h39.828125v26.550781h-39.828125zm0 0" fill="#fdbd40"/><path d="m318.628906 26.550781h39.828125v26.554688h-39.828125zm0 0" fill="#2d75bb"/><path d="m358.457031 311.984375h-39.828125l5.703125 26.550781h28.421875zm0 0" fill="#fdbd40"/><path d="m324.328125 338.535156 5.753906 26.808594c1.335938 4.671875 6.203125 7.378906 10.878907 6.042969 2.921874-.835938 5.207031-3.121094 6.042968-6.042969l5.753906-26.808594zm0 0" fill="#2d75bb"/></svg>