<?xml version="1.0" encoding="iso-8859-1"?>
<!-- Generator: Adobe Illustrator 19.0.0, SVG Export Plug-In . SVG Version: 6.00 Build 0)  -->
<svg version="1.1" id="Capa_1" xmlns="http://www.w3.org/2000/svg" xmlns:xlink="http://www.w3.org/1999/xlink" x="0px" y="0px"
	 viewBox="0 0 512 512" style="enable-background:new 0 0 512 512;" xml:space="preserve">
<path style="fill:#E1E4FB;" d="M392,316.9v120c0,49.2-99.101,75-196,75S0,486.1,0,436.9v-120H392z"/>
<g>
	<path style="fill:#C5C9F7;" d="M392,316.9v120c0,49.2-99.101,75-196,75v-195H392z"/>
	<path style="fill:#C5C9F7;" d="M392,256.9v90c0,49.2-99.101,75-196,75S0,396.1,0,346.9v-90H392z"/>
</g>
<path style="fill:#A8AFF1;" d="M392,256.9v90c0,49.2-99.101,75-196,75v-165H392z"/>
<path style="fill:#E1E4FB;" d="M392,164.9v92c0,49.2-99.101,75-196,75S0,306.1,0,256.9v-92H392z"/>
<g>
	<path style="fill:#C5C9F7;" d="M392,164.9v92c0,49.2-99.101,75-196,75v-167H392z"/>
	<path style="fill:#C5C9F7;" d="M392,73.9v91c0,49.2-99.101,77-196,77S0,214.1,0,164.9v-91C0,73.9,392,73.9,392,73.9z"/>
</g>
<path style="fill:#A8AFF1;" d="M392,73.9v91c0,49.2-99.101,77-196,77v-168C196,73.9,392,73.9,392,73.9z"/>
<path style="fill:#E1E4FB;" d="M196,0.1C98.5,0.1,0,24.7,0,73.9s99.101,75,196,75s196-25.8,196-75S293.5,0.1,196,0.1z"/>
<path style="fill:#C5C9F7;" d="M392,73.9c0,49.2-99.101,75-196,75V0.1C293.5,0.1,392,24.7,392,73.9z"/>
<path style="fill:#FD003A;" d="M377,241.9c-74.399,0-135,60.599-135,135c0,74.399,60.601,135,135,135s135-60.601,135-135
	C512,302.499,451.399,241.9,377,241.9z"/>
<path style="fill:#E50027;" d="M512,376.9c0,74.399-60.601,135-135,135v-270C451.399,241.9,512,302.499,512,376.9z"/>
<path style="fill:#E1E4FB;" d="M392,316.9v60c0,8.399-6.599,15-15,15s-15-6.601-15-15v-60c0-8.401,6.599-15,15-15
	S392,308.499,392,316.9z"/>
<path style="fill:#C5C9F7;" d="M392,316.9v60c0,8.399-6.599,15-15,15v-90C385.401,301.9,392,308.499,392,316.9z"/>
<path style="fill:#E1E4FB;" d="M392,436.9c0,8.399-6.599,15-15,15s-15-6.601-15-15c0-8.401,6.599-15,15-15S392,428.499,392,436.9z"
	/>
<path style="fill:#C5C9F7;" d="M392,436.9c0,8.399-6.599,15-15,15v-30C385.401,421.9,392,428.499,392,436.9z"/>
</svg>
