<svg id="Hand1" data-name="Hand1" xmlns="http://www.w3.org/2000/svg" viewBox="0 0 103.22 183.61"><defs><style>.cls-1,.cls-2{fill:none;stroke:#f7ae15;stroke-miterlimit:10;}.cls-1{stroke-width:2px;}.cls-3{fill:#f2f2f2;}</style></defs><title>DIP_ICON_Hand1</title><circle class="cls-1" cx="36.82" cy="18.86" r="12.53"/><circle class="cls-2" cx="36.82" cy="18.86" r="18.36"/><path class="cls-3" d="M55.21,113.05a9.81,9.81,0,0,1-9.54,10,9.81,9.81,0,0,1-9.54-10v-77a9.81,9.81,0,0,1,9.54-10,9.81,9.81,0,0,1,9.54,10Z" transform="translate(-8.78 -8.47)"/><path class="cls-3" d="M74.28,123.62a9.55,9.55,0,1,1-19.08,0V66.08a9.55,9.55,0,1,1,19.08,0Z" transform="translate(-8.78 -8.47)"/><path class="cls-3" d="M92.88,133.3a9.55,9.55,0,1,1-19.08,0V78.58a9.55,9.55,0,1,1,19.08,0Z" transform="translate(-8.78 -8.47)"/><path class="cls-3" d="M112,137.45a9.55,9.55,0,1,1-19.08,0V89.58a9.55,9.55,0,1,1,19.08,0Z" transform="translate(-8.78 -8.47)"/><path class="cls-3" d="M19.33,122.33s5.06,17.64,8.33,27.33c6,17.75,12.38,18.5,17,27.17s3.5,14.75,3.5,14.75l50,.5c.25-24.75,12.12-31.73,13.25-45,.73-8.53.5-32.25.5-32.25H36.67Z" transform="translate(-8.78 -8.47)"/><path class="cls-3" d="M39.3,121.44a9.81,9.81,0,0,1-5.51,12.68,9.81,9.81,0,0,1-12.4-6.1l-12-32.61a9.81,9.81,0,0,1,5.51-12.68,9.81,9.81,0,0,1,12.4,6.1Z" transform="translate(-8.78 -8.47)"/></svg>