<svg id="Hand2" data-name="Hand2" xmlns="http://www.w3.org/2000/svg" viewBox="0 0 114.51 225.84"><defs><style>.cls-1{fill:#f4ae15;}.cls-1,.cls-2,.cls-3{stroke:#f4ae15;stroke-miterlimit:10;}.cls-2,.cls-3{fill:none;stroke-width:3px;}.cls-3{stroke-dasharray:5.27 5.27;}.cls-4{fill:#f2f2f2;}</style></defs><title>DIP_ICON_Hand2</title><polygon class="cls-1" points="47.73 1 40.6 13.34 54.85 13.34 47.73 1"/><line class="cls-2" x1="47.95" y1="10.64" x2="47.95" y2="13.14"/><line class="cls-3" x1="47.95" y1="18.41" x2="47.95" y2="79"/><line class="cls-2" x1="47.95" y1="81.64" x2="47.95" y2="84.14"/><polygon class="cls-1" points="1 47.23 13.34 54.35 13.34 40.1 1 47.23"/><polygon class="cls-1" points="94.46 47.23 82.11 40.1 82.11 54.35 94.46 47.23"/><line class="cls-2" x1="10.64" y1="47" x2="13.14" y2="47"/><line class="cls-3" x1="18.41" y1="47" x2="79" y2="47"/><line class="cls-2" x1="81.64" y1="47" x2="84.14" y2="47"/><path class="cls-4" d="M61.54,150.05a9.81,9.81,0,0,1-9.54,10,9.81,9.81,0,0,1-9.54-10v-77a9.81,9.81,0,0,1,9.54-10,9.81,9.81,0,0,1,9.54,10Z" transform="translate(-3.81 -3.25)"/><path class="cls-4" d="M80.62,160.62a9.55,9.55,0,1,1-19.08,0V103.08a9.55,9.55,0,1,1,19.08,0Z" transform="translate(-3.81 -3.25)"/><path class="cls-4" d="M99.22,170.3a9.55,9.55,0,1,1-19.08,0V115.58a9.55,9.55,0,1,1,19.08,0Z" transform="translate(-3.81 -3.25)"/><path class="cls-4" d="M118.29,174.45a9.55,9.55,0,1,1-19.08,0V126.58a9.55,9.55,0,1,1,19.08,0Z" transform="translate(-3.81 -3.25)"/><path class="cls-4" d="M25.67,159.33S30.72,177,34,186.67c6,17.75,12.38,18.5,17,27.17s3.5,14.75,3.5,14.75l50,.5c.25-24.75,12.12-31.73,13.25-45,.73-8.53.5-32.25.5-32.25H43Z" transform="translate(-3.81 -3.25)"/><path class="cls-4" d="M45.63,158.44a9.81,9.81,0,0,1-5.51,12.68,9.81,9.81,0,0,1-12.4-6.1l-12-32.61a9.81,9.81,0,0,1,5.51-12.68,9.81,9.81,0,0,1,12.4,6.1Z" transform="translate(-3.81 -3.25)"/></svg>