<svg id="Capa_1" data-name="Capa 1" xmlns="http://www.w3.org/2000/svg" viewBox="0 0 177.78 60.68"><defs><style>.cls-1{fill:#666;}</style></defs><title>Pixels grafic</title><rect class="cls-1" y="53.23" width="7.45" height="7.45"/><rect class="cls-1" y="42.58" width="7.45" height="7.45"/><rect class="cls-1" y="31.94" width="7.45" height="7.45"/><rect class="cls-1" y="21.29" width="7.45" height="7.45"/><rect class="cls-1" y="10.65" width="7.45" height="7.45"/><rect class="cls-1" width="7.45" height="7.45"/><rect class="cls-1" x="10.65" y="53.23" width="7.45" height="7.45"/><rect class="cls-1" x="10.65" y="42.58" width="7.45" height="7.45"/><rect class="cls-1" x="10.65" y="31.94" width="7.45" height="7.45"/><rect class="cls-1" x="10.65" y="21.29" width="7.45" height="7.45"/><rect class="cls-1" x="21.29" y="53.23" width="7.45" height="7.45"/><rect class="cls-1" x="21.29" y="42.58" width="7.45" height="7.45"/><rect class="cls-1" x="21.29" y="31.94" width="7.45" height="7.45"/><rect class="cls-1" x="31.94" y="53.23" width="7.45" height="7.45"/><rect class="cls-1" x="31.94" y="42.58" width="7.45" height="7.45"/><rect class="cls-1" x="42.58" y="53.23" width="7.45" height="7.45"/><rect class="cls-1" x="42.58" y="42.58" width="7.45" height="7.45"/><rect class="cls-1" x="42.58" y="31.94" width="7.45" height="7.45"/><rect class="cls-1" x="53.23" y="53.23" width="7.45" height="7.45"/><rect class="cls-1" x="53.23" y="42.58" width="7.45" height="7.45"/><rect class="cls-1" x="53.23" y="31.94" width="7.45" height="7.45"/><rect class="cls-1" x="53.23" y="21.29" width="7.45" height="7.45"/><rect class="cls-1" x="63.87" y="53.23" width="7.45" height="7.45"/><rect class="cls-1" x="63.87" y="42.58" width="7.45" height="7.45"/><rect class="cls-1" x="63.87" y="31.94" width="7.45" height="7.45"/><rect class="cls-1" x="63.87" y="21.29" width="7.45" height="7.45"/><rect class="cls-1" x="63.87" y="10.65" width="7.45" height="7.45"/><rect class="cls-1" x="74.52" y="53.23" width="7.45" height="7.45"/><rect class="cls-1" x="74.52" y="42.58" width="7.45" height="7.45"/><rect class="cls-1" x="74.52" y="31.94" width="7.45" height="7.45"/><rect class="cls-1" x="74.52" y="21.29" width="7.45" height="7.45"/><rect class="cls-1" x="74.52" y="10.65" width="7.45" height="7.45"/><rect class="cls-1" x="74.52" width="7.45" height="7.45"/><rect class="cls-1" x="85.16" y="53.23" width="7.45" height="7.45"/><rect class="cls-1" x="85.16" y="42.58" width="7.45" height="7.45"/><rect class="cls-1" x="85.16" y="31.94" width="7.45" height="7.45"/><rect class="cls-1" x="85.16" y="21.29" width="7.45" height="7.45"/><rect class="cls-1" x="85.16" y="10.65" width="7.45" height="7.45"/><rect class="cls-1" x="95.81" y="53.23" width="7.45" height="7.45"/><rect class="cls-1" x="95.81" y="42.58" width="7.45" height="7.45"/><rect class="cls-1" x="95.81" y="31.94" width="7.45" height="7.45"/><rect class="cls-1" x="95.81" y="21.29" width="7.45" height="7.45"/><rect class="cls-1" x="106.46" y="53.23" width="7.45" height="7.45"/><rect class="cls-1" x="106.46" y="42.58" width="7.45" height="7.45"/><rect class="cls-1" x="106.46" y="31.94" width="7.45" height="7.45"/><rect class="cls-1" x="106.46" y="21.29" width="7.45" height="7.45"/><rect class="cls-1" x="117.1" y="53.23" width="7.45" height="7.45"/><rect class="cls-1" x="117.1" y="42.58" width="7.45" height="7.45"/><rect class="cls-1" x="127.75" y="53.23" width="7.45" height="7.45"/><rect class="cls-1" x="127.75" y="42.58" width="7.45" height="7.45"/><rect class="cls-1" x="138.39" y="53.23" width="7.45" height="7.45"/><rect class="cls-1" x="138.39" y="42.58" width="7.45" height="7.45"/><rect class="cls-1" x="138.39" y="31.94" width="7.45" height="7.45"/><rect class="cls-1" x="149.04" y="53.23" width="7.45" height="7.45"/><rect class="cls-1" x="149.04" y="42.58" width="7.45" height="7.45"/><rect class="cls-1" x="149.04" y="31.94" width="7.45" height="7.45"/><rect class="cls-1" x="149.04" y="21.29" width="7.45" height="7.45"/><rect class="cls-1" x="149.04" y="10.65" width="7.45" height="7.45"/><rect class="cls-1" x="159.68" y="53.23" width="7.45" height="7.45"/><rect class="cls-1" x="159.68" y="42.58" width="7.45" height="7.45"/><rect class="cls-1" x="159.68" y="31.94" width="7.45" height="7.45"/><rect class="cls-1" x="159.68" y="21.29" width="7.45" height="7.45"/><rect class="cls-1" x="159.68" y="10.65" width="7.45" height="7.45"/><rect class="cls-1" x="159.68" width="7.45" height="7.45"/><rect class="cls-1" x="170.33" y="53.23" width="7.45" height="7.45"/><rect class="cls-1" x="170.33" y="42.58" width="7.45" height="7.45"/><rect class="cls-1" x="170.33" y="31.94" width="7.45" height="7.45"/><rect class="cls-1" x="170.33" y="21.29" width="7.45" height="7.45"/></svg>