<svg id="Portrait_Landscape" data-name="Capa 1" xmlns="http://www.w3.org/2000/svg" viewBox="0 0 477.3 266.24"><defs><style>.cls-1{fill:#e6e6e6;}.cls-2{fill:#111;}.cls-3{fill:#868789;}.cls-4{fill:#58585a;}.cls-5,.cls-6{fill:#4d4d4d;stroke:#4d4d4d;}.cls-5,.cls-6,.cls-7,.cls-8{stroke-miterlimit:10;}.cls-5{stroke-width:0.5px;}.cls-7{fill:none;stroke-width:4px;}.cls-7,.cls-8{stroke:#f7ae15;}.cls-8{fill:#f7ae15;}</style></defs><title>DIP_ICON_PortLandsView</title><path class="cls-1" d="M143,263.92a19.69,19.69,0,0,1-19.63,19.63H36.53A19.69,19.69,0,0,1,16.9,263.92V37.81A19.69,19.69,0,0,1,36.53,18.18h86.82A19.69,19.69,0,0,1,143,37.81Z" transform="translate(-16.9 -18.18)"/><rect class="cls-2" x="9.25" y="36.24" width="107.58" height="194.03"/><path class="cls-3" d="M88.79,264.11a8.85,8.85,0,1,1-8.85-8.85A8.85,8.85,0,0,1,88.79,264.11Z" transform="translate(-16.9 -18.18)"/><path class="cls-4" d="M89.42,42a2.66,2.66,0,0,1-2.65,2.65H70.26A2.66,2.66,0,0,1,67.61,42h0a2.65,2.65,0,0,1,2.65-2.64h16.5A2.65,2.65,0,0,1,89.42,42Z" transform="translate(-16.9 -18.18)"/><line class="cls-5" x1="19.76" y1="118.89" x2="105.8" y2="118.89"/><line class="cls-5" x1="19.76" y1="126.11" x2="105.8" y2="126.11"/><line class="cls-5" x1="19.76" y1="133.33" x2="105.8" y2="133.33"/><line class="cls-5" x1="19.76" y1="140.55" x2="105.8" y2="140.55"/><line class="cls-5" x1="19.76" y1="147.77" x2="105.8" y2="147.77"/><line class="cls-5" x1="19.76" y1="154.99" x2="105.8" y2="154.99"/><line class="cls-5" x1="19.76" y1="162.21" x2="105.8" y2="162.21"/><line class="cls-5" x1="19.76" y1="192.3" x2="105.8" y2="192.3"/><line class="cls-5" x1="19.76" y1="199.52" x2="105.8" y2="199.52"/><rect class="cls-6" x="21.77" y="83.25" width="14.89" height="16.57"/><rect class="cls-6" x="44.91" y="67.44" width="14.89" height="32.39"/><rect class="cls-6" x="68.06" y="74.59" width="14.89" height="25.23"/><rect class="cls-6" x="91.2" y="88.57" width="14.89" height="11.26"/><path class="cls-1" d="M474.57,158.34A19.69,19.69,0,0,1,494.2,178v86.82a19.69,19.69,0,0,1-19.63,19.63H248.46a19.69,19.69,0,0,1-19.63-19.63V178a19.69,19.69,0,0,1,19.63-19.63Z" transform="translate(-16.9 -18.18)"/><rect class="cls-2" x="248.17" y="149.41" width="194.03" height="107.58"/><path class="cls-3" d="M474.76,212.53a8.85,8.85,0,1,1-8.85,8.85A8.85,8.85,0,0,1,474.76,212.53Z" transform="translate(-16.9 -18.18)"/><path class="cls-4" d="M252.61,211.89a2.66,2.66,0,0,1,2.65,2.65V231a2.66,2.66,0,0,1-2.65,2.65h0A2.65,2.65,0,0,1,250,231v-16.5a2.66,2.66,0,0,1,2.64-2.65Z" transform="translate(-16.9 -18.18)"/><line class="cls-5" x1="260.11" y1="215.07" x2="430.03" y2="215.07"/><line class="cls-5" x1="260.11" y1="222.29" x2="430.03" y2="222.29"/><line class="cls-5" x1="260.11" y1="229.51" x2="430.03" y2="229.51"/><line class="cls-5" x1="260.11" y1="236.73" x2="430.03" y2="236.73"/><line class="cls-5" x1="260.11" y1="243.95" x2="430.03" y2="243.95"/><rect class="cls-6" x="262.11" y="183.24" width="14.89" height="16.57"/><rect class="cls-6" x="285.26" y="167.43" width="14.89" height="32.39"/><rect class="cls-6" x="308.4" y="174.58" width="14.89" height="25.23"/><rect class="cls-6" x="331.55" y="188.56" width="14.89" height="11.26"/><path class="cls-7" d="M269.67,104.29s-.2-11.46-.21-11.86c0,0,1.59-19.84-14.76-37.61C236.45,35,214.07,37.68,214.07,37.68H201.7" transform="translate(-16.9 -18.18)"/><polygon class="cls-8" points="179.26 19.43 195.54 28.83 195.54 10.03 179.26 19.43"/><polygon class="cls-8" points="252.64 96.94 262.04 80.65 243.24 80.65 252.64 96.94"/></svg>