<?xml version="1.0" encoding="iso-8859-1"?>
<!-- Generator: Adobe Illustrator 19.0.0, SVG Export Plug-In . SVG Version: 6.00 Build 0)  -->
<svg version="1.1" id="Browser" xmlns="http://www.w3.org/2000/svg" xmlns:xlink="http://www.w3.org/1999/xlink" x="0px" y="0px"
	 viewBox="0 0 512.002 512.002" style="enable-background:new 0 0 512.002 512.002;" xml:space="preserve">
<g>
	<g>
		<path d="M256,248.689c-4.032,0-7.312,3.281-7.312,7.312c0,4.031,3.28,7.311,7.312,7.311s7.312-3.28,7.312-7.311
			S260.032,248.689,256,248.689z"/>
	</g>
</g>
<g>
	<g>
		<path d="M189.569,223.3l37.052,9.655c3.776-4.802,8.696-8.658,14.352-11.154v-38.33C218.381,188.147,199.53,203.149,189.569,223.3
			z"/>
	</g>
</g>
<g>
	<g>
		<path d="M271.026,183.472v38.33c5.656,2.494,10.577,6.351,14.352,11.154l37.052-9.655
			C312.472,203.15,293.62,188.147,271.026,183.472z"/>
	</g>
</g>
<g>
	<g>
		<path d="M219.134,262.061l-37.105-9.669c-0.058,1.196-0.091,2.399-0.091,3.609c0,19.371,7.484,37.02,19.701,50.232l23.125-29.764
			C221.952,272.193,219.995,267.31,219.134,262.061z"/>
	</g>
</g>
<g>
	<g>
		<path d="M329.971,252.392l-37.105,9.669c-0.859,5.249-2.817,10.132-5.629,14.407l23.125,29.764
			c12.218-13.211,19.701-30.86,19.701-50.232C330.063,254.791,330.028,253.588,329.971,252.392z"/>
	</g>
</g>
<g>
	<g>
		<path d="M261.938,292.888c-1.935,0.311-3.917,0.477-5.938,0.477s-4.003-0.166-5.938-0.477l-23.966,30.847
			c9.152,4.057,19.265,6.329,29.905,6.329c10.64,0,20.752-2.272,29.905-6.329L261.938,292.888z"/>
	</g>
</g>
<g>
	<g>
		<path d="M256,124.167c-72.693,0-131.834,59.141-131.834,131.834S183.306,387.835,256,387.835s131.835-59.14,131.835-131.834
			S328.694,124.167,256,124.167z M256,360.117c-57.41,0-104.116-46.706-104.116-104.116S198.59,151.885,256,151.885
			s104.116,46.706,104.116,104.116S313.41,360.117,256,360.117z"/>
	</g>
</g>
<g>
	<g>
		<path d="M497.889,341.191c7.828-22.161,12.692-45.706,14.113-70.164h-26.649v-0.001v-30.053H512
			c-1.373-23.648-5.957-46.447-13.336-67.962l-24.685,10.094l-11.374-27.818l24.654-10.081
			c-10.44-21.703-23.857-41.71-39.703-59.513L428.8,104.449l-21.248-21.251l18.755-18.755
			c-17.226-15.332-36.523-28.381-57.418-38.668l-10.298,24.546l-27.713-11.626l10.312-24.58
			c-22.162-7.828-45.707-12.692-70.164-14.113v26.646h-30.053V0.001c-23.648,1.373-46.447,5.958-67.963,13.336l10.093,24.683
			l-27.817,11.374l-10.081-24.654c-21.703,10.44-41.71,23.857-59.513,39.702l18.755,18.755l-21.25,21.25L64.443,85.694
			c-15.332,17.226-28.381,36.522-38.668,57.418l24.546,10.299l-11.628,27.713l-24.579-10.312C6.285,192.972,1.421,216.516,0,240.974
			h26.647v30.053H0c1.373,23.648,5.958,46.447,13.336,67.963l24.685-10.094l11.374,27.818l-24.654,10.081
			c10.44,21.703,23.857,41.71,39.702,59.514l18.755-18.755l21.25,21.25l-18.755,18.755c17.226,15.332,36.523,28.381,57.419,38.669
			l10.299-24.547l27.713,11.626l-10.313,24.581c22.161,7.828,45.706,12.692,70.164,14.113v-26.647h30.053v26.647
			c23.648-1.373,46.447-5.957,67.963-13.336l-10.093-24.684l27.817-11.374l10.081,24.655c21.703-10.44,41.71-23.857,59.514-39.702
			l-18.755-18.755l21.25-21.25l18.755,18.755c15.332-17.226,28.381-36.523,38.668-57.418l-24.546-10.299l11.628-27.713
			L497.889,341.191z M256,417.888c-89.264,0-161.887-72.622-161.887-161.887S166.736,94.114,256,94.114
			c89.265,0,161.888,72.623,161.888,161.887S345.265,417.888,256,417.888z"/>
	</g>
</g>
</svg>
