<svg version="1.1" id="Layer_1" xmlns="http://www.w3.org/2000/svg" xmlns:xlink="http://www.w3.org/1999/xlink" x="0px" y="0px" viewBox="0 0 244 54.7" style="enable-background:new 0 0 244 54.7;" xml:space="preserve">
 <style type="text/css">
  .st0{fill-rule:evenodd;clip-rule:evenodd;fill:#DA2020;}
 </style>
 <g>
  <path class="st0" d="M234.4,3.8c-2.5,1.1-4.1,3.5-4.1,6.2v44.6h9.5c2.3,0,4.1-1.8,4.1-4.1V0L234.4,3.8z M216.7,17.5
		c-2.5,1.1-4.1,3.5-4.1,6.2v30.9h9.5c2.3,0,4.1-1.8,4.1-4.1V13.6L216.7,17.5z M199,31.1c-2.5,1.1-4.1,3.5-4.1,6.2v17.3h9.5
		c2.3,0,4.1-1.8,4.1-4.1V27.3L199,31.1z M0,35.9h6.3v2.8c1-1.8,2.9-3.3,5.8-3.3c2.4,0,4.1,1.1,5,3.1c1.6-2.1,3.8-3.1,6.1-3.1
		c3.5,0,6,2.2,6,6.8v12h-6.3v-11c0-1.9-0.9-2.8-2.4-2.8c-1.7,0-2.8,1.1-2.8,3.1v10.6h-6.2v-11c0-1.9-0.9-2.8-2.4-2.8
		c-1.7,0-2.8,1.1-2.8,3.1v10.6H0V35.9z M44.9,45.2v-0.3c0-3.1-1.2-4.8-3.6-4.8c-2.4,0-3.7,1.7-3.7,4.7v0.3c0,3.2,1.2,4.9,3.7,4.9
		C43.7,50,44.9,48.2,44.9,45.2 M31.2,45.3V45c0-5.9,4.4-9.6,10.1-9.6c5.7,0,10,3.6,10,9.4v0.3c0,6-4.4,9.5-10,9.5
		C35.6,54.7,31.2,51.2,31.2,45.3 M54.1,48.3v-8.2h-2.2v-4.3h2.2v-1.3l6.3-2.5v3.8H64v4.3h-3.6v7.6c0,1.3,0.7,1.9,1.9,1.9
		c0.7,0,1.2-0.1,1.8-0.3v4.8c-1.1,0.3-2.3,0.5-3.5,0.5C56.4,54.7,54.1,52.7,54.1,48.3 M66.6,29.6l6.3-2.6v11.7c1-1.9,3-3.4,6-3.4
		c3.5,0,6,2.2,6,6.9v11.9h-6.3V43.6c0-2.1-0.8-3.1-2.6-3.1c-1.9,0-3.1,1.1-3.1,3.5v10.3h-6.3L66.6,29.6z M100.2,43
		c-0.1-2.2-1.2-3.4-3.2-3.4c-1.9,0-3.2,1.2-3.5,3.4H100.2z M87,45.3V45c0-5.9,4.4-9.6,9.9-9.6c5,0,9.3,2.9,9.3,9.5v1.6H93.3
		c0.2,2.4,1.6,3.8,3.8,3.8c2.1,0,2.9-0.9,3.2-2.2h5.9c-0.6,4.1-3.8,6.5-9.3,6.5C91.2,54.7,87,51.3,87,45.3z M108.7,35.9h6.3v3.6
		c1.2-2.7,3.1-3.9,5.9-3.9v5.9c-3.8-0.1-5.9,1.1-5.9,4v8.7h-6.3V35.9z M121.9,48.4h5.8c0.2,1.3,0.8,2.1,2.6,2.1
		c1.5,0,2.2-0.6,2.2-1.5c0-0.9-0.9-1.3-3.4-1.7c-4.9-0.6-7-2.1-7-5.9c0-4.1,3.6-6,7.9-6c4.5,0,7.7,1.5,8.1,5.9h-5.7
		c-0.2-1.2-0.9-1.8-2.4-1.8c-1.4,0-2.1,0.6-2.1,1.4c0,0.9,0.8,1.2,3.1,1.5c5.1,0.6,7.5,2,7.5,5.9c0,4.4-3.2,6.3-8.3,6.3
		C125.1,54.7,122,52.5,121.9,48.4 M153.4,45.2v-0.3c0-3.1-1.2-4.8-3.6-4.8c-2.4,0-3.6,1.7-3.6,4.7v0.3c0,3.2,1.2,4.9,3.7,4.9
		C152.2,50,153.4,48.2,153.4,45.2 M139.7,45.3V45c0-5.9,4.4-9.6,10.1-9.6c5.7,0,10,3.6,10,9.4v0.3c0,6-4.4,9.5-10,9.5
		S139.7,51.2,139.7,45.3 M162.1,35.9h6.3v2.9c1-1.9,3-3.4,6-3.4c3.5,0,6,2.2,6,6.9v11.9h-6.3V43.6c0-2.1-0.8-3.1-2.6-3.1
		c-1.9,0-3.1,1.1-3.1,3.5v10.3h-6.3L162.1,35.9z">
  </path>
 </g>
</svg>