<?xml version="1.0" encoding="UTF-8" standalone="no"?>
<svg
   xmlns:dc="http://purl.org/dc/elements/1.1/"
   xmlns:cc="http://creativecommons.org/ns#"
   xmlns:rdf="http://www.w3.org/1999/02/22-rdf-syntax-ns#"
   xmlns:svg="http://www.w3.org/2000/svg"
   xmlns="http://www.w3.org/2000/svg"
   xmlns:sodipodi="http://sodipodi.sourceforge.net/DTD/sodipodi-0.dtd"
   xmlns:inkscape="http://www.inkscape.org/namespaces/inkscape"
   version="1.1"
   id="svg2"
   xml:space="preserve"
   width="4000"
   height="2666.6667"
   viewBox="0 0 4000 2666.6667"
   sodipodi:docname="11138.eps"><metadata
     id="metadata8"><rdf:RDF><cc:Work
         rdf:about=""><dc:format>image/svg+xml</dc:format><dc:type
           rdf:resource="http://purl.org/dc/dcmitype/StillImage" /></cc:Work></rdf:RDF></metadata><defs
     id="defs6" /><sodipodi:namedview
     pagecolor="#ffffff"
     bordercolor="#666666"
     borderopacity="1"
     objecttolerance="10"
     gridtolerance="10"
     guidetolerance="10"
     inkscape:pageopacity="0"
     inkscape:pageshadow="2"
     inkscape:window-width="640"
     inkscape:window-height="480"
     id="namedview4" /><g
     id="g10"
     inkscape:groupmode="layer"
     inkscape:label="ink_ext_XXXXXX"
     transform="matrix(1.3333333,0,0,-1.3333333,0,2666.6667)"><g
       id="g12"
       transform="scale(0.1)"><path
         d="M 0,0 H 30000 V 20000 H 0 Z"
         style="fill:#ffffff;fill-opacity:1;fill-rule:nonzero;stroke:none"
         id="path14" /><path
         d="m 3062.48,2842.8 c 0,0 -1837.38,2779.8 163.69,6050.3 2001.07,3270.6 4688.68,1625.8 4558.61,5432.4 -130.05,3806.6 5554.42,4175.8 7563.32,3072.1 1426.1,-783.7 2733.7,-692.2 4230.9,-600.8 611.7,37.3 1255,74.6 1950.9,52.3 3891.4,-124.9 4980.7,-3964.6 3901.9,-5833.2 -1530.8,-2651.2 4795.5,-2963 1153.9,-8173.1 H 3062.48"
         style="fill:#ebf3fa;fill-opacity:1;fill-rule:nonzero;stroke:none"
         id="path16" /><path
         d="m 8952.5,7137.2 c -201.96,-0.1 -104.73,212.6 -7.68,490.9 125.47,359.9 683.11,611.7 789.14,786.1 44.07,72.5 22.22,106.4 -39.59,106.4 -86.94,0 -252.95,-66.9 -425.98,-187.2 -296.05,-205.8 -269.12,-606.8 -741.97,-948.5 -90.86,-65.6 -198.78,-92.1 -313.81,-92.1 -483.66,0 -1093.5,468.6 -1093.5,468.6 408.81,95.7 916.92,650.4 870.79,783.6 -4.95,14.3 -19.9,20.8 -42.8,20.8 -190.4,0 -932.16,-443.5 -1078.64,-486.5 -19.1,-5.6 -41.66,-8.7 -66.87,-8.7 -191.42,0 -536.66,176.9 -696.5,763.1 -180.88,663.4 890.01,1051.3 890.01,1051.3 0,0 1083.35,-537.3 1394.37,-537.3 22.23,0 40.48,2.8 54.14,8.7 204.8,88.1 -960.38,734.9 -960.38,734.9 348.68,252.8 1556.67,352.5 1556.67,352.5 0,0 561.08,-1078.5 771,-1078.5 11.86,0 22.56,3.4 32.01,10.7 176.79,135.8 -608.85,1037.4 -608.85,1037.4 79.15,19.3 163.92,27.2 249.35,27.2 368.71,0 750.19,-146 750.19,-146 816.3,-434.8 215.9,-1460.5 215.9,-1460.5 0,0 226,-412.4 749.3,-730.5 v 0 c 0,0 106.9,-52.7 250.1,-165 l -97.6,-57.2 c -23.3,21.5 -46.9,41.6 -70.9,60.2 l -0.4,0.3 -1.1,0.8 c -15.5,11.2 -37.7,27 -65,46.1 h -0.1 l -0.1,0.1 c -64,40.9 -109.5,72.1 -140.5,95.8 l -0.2,0.2 c -196.6,130.6 -464.9,293.5 -580.2,293.5 -0.1,0 -0.2,0 -0.3,0 0,0 1.8,21.5 -5.4,57 1.7,-18.2 3.5,-37.1 5.4,-57 43,-455.7 -756.79,-1005.2 -1277.85,-1182.7 -118.08,-40.3 -202.98,-58.5 -262.15,-58.5"
         style="fill:#d9e5fc;fill-opacity:1;fill-rule:nonzero;stroke:none"
         id="path18" /><path
         d="m 24016.7,3953.6 c 665.2,646 -311.8,1831.3 -311.8,1831.3 0,0 -1867.2,137.4 -2044.5,380.2 -177.3,242.8 1619.3,194.3 1619.3,194.3 -231.4,532.6 -1565.4,1477.3 -1565.4,1477.3 0,0 -1553,-967.7 -1665,-688.6 -112.1,279 1418.7,786.6 1418.7,786.6 -418,407.9 -1241.9,548 -1241.9,548 -1246.1,55.4 -1252.8,-1547.5 -1252.8,-1547.5 0,0 -545.4,-323.7 -1371.3,-333.9 v 0 c 0,0 -160.3,12.2 -403.5,-19.9 l 74,-133.4 c 41.8,8.9 83,16.1 123.6,21.2 l 0.7,0.1 1.8,0.2 c 25.6,2.3 62.3,5.4 107.1,8.8 l 0.1,0.1 h 0.2 c 102.4,3.4 176.6,8.6 228.8,14.8 l 0.5,0.1 c 318.1,16.7 741.9,21.7 875.3,-57.7 0,0 12.6,26.3 45.4,62.5 -14.5,-19.9 -29.5,-40.7 -45.4,-62.5 -362.6,-499.5 188.8,-1686.3 672,-2250 483.1,-563.6 508.7,-186.9 610,317 101.2,503.9 -373.4,1178.9 -376.8,1454.2 -3.4,275.3 282.6,28.7 485.1,-413.4 202.5,-442.1 -104,-889.2 210.6,-1610.3 314.5,-721.1 1892.2,-528.6 1892.2,-528.6 -409,391.6 -618.3,1384.3 -473.3,1507.3 145,123 824.9,-1141.7 982.4,-1310.3 157.4,-168.5 738.7,-294 1403.9,352.1"
         style="fill:#dfebfd;fill-opacity:1;fill-rule:nonzero;stroke:none"
         id="path20" /><path
         d="m 9931.44,10797.2 c -669.92,387.4 -1780.05,698.5 -1917.36,867.2 -1.38,1.7 -2.72,3.4 -4.03,5 -72.22,91.7 -2.87,221 105.02,221 9.82,0 19.97,-1.1 30.35,-3.4 936.27,-204.6 1786.02,-1089.8 1786.02,-1089.8"
         style="fill:#d8e8fd;fill-opacity:1;fill-rule:nonzero;stroke:none"
         id="path22" /><path
         d="m 10202,10564.4 c -967.14,252.4 -2456.25,258.7 -2685.14,421.6 -85.82,61.1 -114.41,120.1 -116.61,170 -3.39,76.7 57.71,141.4 134.18,147.6 71.79,5.8 143.88,8.6 216.42,8.6 1194.54,0 2451.15,-747.8 2451.15,-747.8"
         style="fill:#d8e8fd;fill-opacity:1;fill-rule:nonzero;stroke:none"
         id="path24" /><path
         d="m 20160.4,8616.1 c 0,0 201.7,1261.4 881.2,1991.9 29.1,31.3 65.8,45.2 101.8,45.2 75.7,0 148.6,-61.3 143.1,-151 -0.1,-2.2 -0.3,-4.5 -0.4,-6.7 -17.4,-225.8 -782.5,-1150.5 -1125.7,-1879.4"
         style="fill:#dbe7fb;fill-opacity:1;fill-rule:nonzero;stroke:none"
         id="path26" /><path
         d="m 20266.5,8475.1 c -26,5.2 -40.4,7.6 -40.4,7.6 -15,0.7 -29.8,1.1 -44.5,1.3 243.7,457 862.7,1485.6 1728.8,1987.4 24.2,14 50.9,20.8 77.4,20.8 49.2,0 97.3,-23.5 125,-67.4 27.7,-44 38.3,-111.5 1.1,-214.7 -90.1,-249.9 -1146.7,-1006.5 -1847.4,-1735"
         style="fill:#dbe7fb;fill-opacity:1;fill-rule:nonzero;stroke:none"
         id="path28" /><path
         d="m 20067,8256.4 c 0,0 39.5,86.6 114.6,227.6 14.7,-0.2 29.5,-0.6 44.5,-1.3 0,0 14.4,-2.4 40.4,-7.6 -70.6,-73.4 -137.5,-146.4 -199.5,-218.7"
         style="fill:#d2e1fd;fill-opacity:1;fill-rule:nonzero;stroke:none"
         id="path30" /><path
         d="m 15595,10205.2 c -15.8,0 -31.8,3.6 -46.9,11.1 l -425.6,212.2 c -50.5,25.1 -73.1,84.3 -52.3,135.7 l 191.1,483.9 c 16.8,41.5 6.1,88.7 -26.5,119.8 -69.7,66.4 -134.6,139.8 -195.2,219.3 -32.7,42.7 -63.2,86.4 -91.7,130.9 -20.4,31.7 -55.5,50.5 -92.7,50.5 -3.7,0 -7.3,-0.2 -11,-0.5 l -494.8,-54.3 c -4.2,-0.5 -8.2,-0.7 -12.3,-0.7 -52.4,0 -98.2,36.5 -109.1,89.1 l -88.6,450.2 -2.1,10.7 c -10.4,54.9 21.6,108.7 74.6,125.2 l 365.7,114.3 c 6.1,1.9 11.8,4.3 17.2,7 37.5,19.8 61.6,59.9 58.1,103 -17,254.2 16.5,508.6 99.2,749.3 3.3,10 5.1,20.2 5.7,30.2 1.6,38.2 -17.4,75.6 -50.2,97.1 l -269.3,172.2 c -35.3,23 -53.8,64.2 -49.6,104.4 1.7,12.1 4.9,24.9 10.8,36.9 l 208.8,419.5 c 19.1,38.7 58.7,61.7 100,61.7 13.8,0 27.8,-2.5 41.3,-7.9 l 395.5,-156.7 c 12.9,-5.1 26.3,-7.5 39.7,-7.5 27,0 53.5,10.1 74,29.4 44.7,40.9 90.7,80 139.4,117.2 91.6,69.9 187.2,129.9 285.9,180.5 l 0.4,0.4 c 41.2,21.1 64.9,64.5 59.9,110.5 l -46.9,429.5 -2.1,21.6 c -6.5,55.1 31.1,107 86.4,117.8 l 460.1,90.7 c 7.2,1.4 14.3,2 21.3,2 48.3,0 92.7,-30.9 107.6,-78.6 l 127.3,-407 c 14.1,-45.3 55.6,-76.4 102.4,-76.9 198.1,-5.4 394.5,-40.7 581.7,-106.2 11.7,-3.9 23.6,-5.8 35.4,-5.8 36.5,0 71.6,18.2 92.3,50.6 l 204.9,318.9 c 21.5,33.2 57.3,51.4 94,51.4 16.9,0 34.1,-3.9 50.1,-11.9 l 421.3,-209.4 c 49.7,-24.9 72.1,-83.7 51.6,-134.8 l -183.5,-465.1 c -15.7,-39.4 -7.4,-84.3 20.8,-116 35.1,-38.8 68.8,-79.4 101.1,-121.7 60.9,-79.9 114.5,-162.7 160.8,-247.6 18.7,-35 54.7,-56.9 93.7,-56.9 4.2,0 8.4,0.3 12.7,0.8 l 516.1,56.8 c 3.9,0.4 7.8,0.7 11.6,0.7 52.2,0 97.6,-36.5 107.9,-88.4 l 91.3,-461.8 c 9.3,-48.9 -15.9,-98.2 -59.8,-119.5 -4.6,-2.1 -9.6,-4.5 -14.8,-5.7 l -451.5,-141.6 c -42,-12.9 -72.5,-49.1 -76.8,-92.7 -0.5,-3.8 -1,-7.6 -0.8,-11.5 0,-11.6 0.1,-22.5 -1.1,-34.4 -2.8,-136 -20.7,-271.9 -52.5,-404.8 -11.4,-44.2 7.9,-91 47.2,-115.6 l 336.6,-216.6 c 47.9,-30.5 64.7,-92.8 39.2,-143.6 l -46.2,-93.4 -162.4,-325.4 c -18.9,-38.5 -57.7,-61 -98.5,-61 -13.4,0 -27.2,2.5 -40.4,7.7 l -389.6,154.3 c -12.7,5.1 -25.9,7.6 -38.9,7.6 -29.7,0 -58.8,-12.8 -79.6,-35.8 -78.4,-87.1 -166.9,-169 -264.1,-243.1 -72.1,-55 -147.8,-104.5 -224.9,-147.6 l 10,-90.1 40.2,-369.7 c 5.4,-45.7 -19.4,-89.2 -59.6,-108.2 -8.3,-4.3 -17.2,-7 -26.7,-8.8 l -463.1,-92.3 c -6.9,-1.3 -13.7,-1.9 -20.4,-1.9 -47.3,0 -90.3,30.8 -105.1,76.9 l -86.6,278.3 c -14,45.1 -56.8,76.5 -103.7,76.5 -1.9,0 -3.9,-0.1 -5.8,-0.2 -36,-2 -71.9,-3 -107.9,-3 -167.6,0 -334.2,21.7 -495.2,64.8 -9.7,2.6 -19.5,3.8 -29.1,3.8 -36.4,0 -70.6,-18 -89.9,-49.4 l -258.8,-403.1 c -20.1,-30.9 -53.9,-48.2 -88.7,-48.2 m 959.1,3365.9 c -253.6,0 -509.6,-93.4 -713,-287.6 -91.6,-87.6 -172,-195.4 -237,-324.2 -14.1,-27.2 -26.5,-59.2 -38.1,-93.3 -47.8,-147.8 -65.2,-340.8 -38.5,-473.4 115.9,-570.6 567.8,-877.9 1027.8,-877.9 357.6,0 720.2,185.9 933,578.4 7.8,14.8 15.6,29.7 23.1,44.9 70.6,142 102.9,387.3 73,542.8 -15.7,81.5 -38.4,157.8 -66.5,228.6 -173.6,431.7 -565.8,661.7 -963.8,661.7"
         style="fill:#d9e7fa;fill-opacity:1;fill-rule:nonzero;stroke:none"
         id="path32" /><path
         d="m 22577.7,13190.8 c 17.4,-44 31.5,-91.4 41.3,-142 18.5,-96.6 -1.5,-248.9 -45.4,-337 -4.6,-9.5 -9.5,-18.7 -14.3,-28 -302.2,-557.1 -1089.7,-443.9 -1217.7,186 -16.6,82.4 -5.7,202.2 23.9,294 7.2,21.2 14.9,41.1 23.7,58 40.4,80 90.3,146.9 147.2,201.3 324.4,309.8 864.7,206.6 1041.3,-232.3 z m -1967.7,-866.7 307.3,33.7 c 25.6,2.6 50.5,-9.4 64.4,-31 17.7,-27.7 36.7,-54.8 56.9,-81.3 37.7,-49.4 78,-95 121.3,-136.2 20.2,-19.3 26.9,-48.6 16.4,-74.4 l -118.6,-300.5 c -13,-31.9 1.1,-68.7 32.4,-84.2 l 264.3,-131.8 c 30,-14.9 66,-4.8 84.2,23 l 160.8,250.3 c 15.1,24.7 45,36.1 73.8,28.4 121.5,-32.5 248,-45.4 374.6,-38.4 30.5,1.7 58.9,-18.3 68,-47.4 l 53.7,-172.8 c 10.5,-32.7 43.9,-53.1 78,-46.6 l 287.5,57.3 c 6,1.1 11.5,2.8 16.7,5.5 24.9,11.8 40.3,38.8 36.9,67.2 l -24.9,229.5 -6.2,56 c 47.9,26.8 94.9,57.5 139.6,91.7 60.4,46 115.3,96.8 164,150.9 18.7,20.6 47.8,28 73.6,17.5 l 242,-95.8 c 33.1,-12.9 70.6,1.3 86.2,33.1 l 100.9,202.1 28.7,58 c 15.8,31.5 5.4,70.2 -24.3,89.2 l -209.1,134.5 c -24.4,15.3 -36.4,44.3 -29.3,71.8 19.7,82.5 30.9,166.9 32.6,251.4 0.7,7.3 0.7,14.1 0.7,21.3 -0.2,2.4 0.2,4.8 0.5,7.1 2.7,27.1 21.6,49.6 47.7,57.6 l 280.4,87.9 c 3.2,0.8 6.3,2.3 9.1,3.6 27.3,13.2 43,43.8 37.2,74.2 l -56.7,286.8 c -6.9,34.6 -38.9,58.1 -74.3,54.5 l -320.4,-35.4 c -27.2,-3.3 -53.2,10.8 -66.1,34.9 -28.8,52.7 -62,104.1 -99.9,153.8 -20,26.2 -40.9,51.4 -62.7,75.5 -17.6,19.7 -22.7,47.6 -12.9,72 l 113.9,288.9 c 12.7,31.7 -1.2,68.2 -32,83.7 l -261.7,130 c -31.6,15.8 -70,5.6 -89.4,-24.5 l -127.3,-198 c -17,-26.6 -49.6,-37.9 -79.3,-27.9 -116.3,40.7 -238.2,62.7 -361.2,66 -29.1,0.3 -54.9,19.6 -63.6,47.8 l -79.1,252.7 c -10.6,33.9 -45.2,54.2 -80,47.6 l -285.8,-56.4 c -34.3,-6.7 -57.7,-38.9 -53.6,-73.1 l 1.3,-13.5 29.1,-266.6 c 3.1,-28.6 -11.6,-55.5 -37.2,-68.7 l -0.2,-0.2 c -61.3,-31.5 -120.7,-68.7 -177.5,-112.1 -30.3,-23.1 -58.9,-47.4 -86.6,-72.8 -19,-17.9 -46.4,-23.1 -70.7,-13.6 l -245.5,97.3 c -33.6,13.4 -71.9,-1.4 -87.8,-33.4 l -129.6,-260.5 c -3.7,-7.4 -5.7,-15.4 -6.7,-22.9 -2.7,-24.9 8.8,-50.5 30.7,-64.8 l 167.3,-107 c 20.4,-13.3 32.1,-36.6 31.1,-60.2 -0.3,-6.2 -1.4,-12.6 -3.5,-18.8 -51.4,-149.5 -72.2,-307.5 -61.6,-465.3 2.2,-26.8 -12.8,-51.7 -36.1,-64 -3.3,-1.7 -6.9,-3.1 -10.7,-4.3 l -227.1,-71 c -32.9,-10.3 -52.8,-43.7 -46.3,-77.8 l 1.3,-6.6 55,-279.6 c 7.3,-35.2 39.8,-58.8 75.4,-54.9"
         style="fill:#aec3ff;fill-opacity:1;fill-rule:nonzero;stroke:none"
         id="path34" /><path
         d="m 20063.1,15107 c 18.9,-28.1 36,-59.1 50.5,-93 27.7,-64.8 36.9,-174.4 19.6,-242.8 -1.8,-7.3 -3.8,-14.5 -5.8,-21.7 -126.5,-435.8 -694.8,-476.5 -880.2,-55.3 -24.2,55.1 -34.9,140.6 -28.1,209.3 1.8,15.9 4.2,31 7.8,44.2 16,62.1 40.8,116.5 72.3,163.2 179.8,266.3 573.6,276.3 763.9,-3.9 z m -1244.7,-906.1 209.9,70.4 c 17.5,5.7 36.7,1.1 49.8,-11.9 16.5,-16.6 34,-32.7 52.2,-48.2 33.8,-28.8 69,-54.6 105.5,-76.8 17.2,-10.4 26.3,-29.9 22.9,-49.5 l -37.3,-228.4 c -4.2,-24.3 11.3,-47.9 35.6,-54 l 205,-51.9 c 23.2,-5.9 46.9,6.7 55.4,28.9 l 74.3,199.6 c 6.8,19.6 26,32.1 47.4,31.1 89.9,-4.2 180.4,6 267.9,30.2 21.1,5.8 44,-3.8 54.8,-22.8 l 63.9,-112.7 c 12.3,-21.3 38.8,-30.5 61.6,-20.7 l 192.5,83.9 c 4,1.7 7.6,3.7 10.8,6.3 15.7,12.1 22.3,33.3 15.6,52.7 l -52.4,156.8 -12.8,38.2 c 29.4,26 57.6,54.7 83.7,85.4 35.2,41.4 65.9,85.3 91.7,130.6 10,17.2 29.2,26.8 48.9,23.5 l 183.8,-30.3 c 25.2,-3.9 49.3,11.7 55.4,36.4 l 39.7,156.7 11.3,44.9 c 6.2,24.5 -6.9,50 -30.6,58.7 l -166.8,62.3 c -19.4,7 -32.2,25.5 -31.4,45.8 1.2,60.7 -3.8,121.5 -15.5,180.8 -0.6,5.3 -1.6,10 -2.7,15.1 -0.5,1.6 -0.7,3.4 -0.8,5.1 -2.3,19.3 7.6,37.9 24.6,47.5 l 182.8,104.2 c 2.1,1 4.1,2.6 5.8,3.9 17.1,13.4 23.4,37.2 14.8,57.6 l -83.4,192 c -10.1,23.1 -36,34.8 -60.2,26.8 l -218.9,-73.5 c -18.5,-6.5 -38.8,-0.6 -51.5,14.3 -28.2,32.5 -59.3,63.4 -93.3,92.4 -18,15.3 -36.5,29.7 -55.4,43.3 -15.3,11.1 -23.2,29.8 -20,48.4 l 35.7,219.4 c 4,24.2 -11.2,47.6 -35.2,53.7 l -202.9,51.2 c -24.4,6.2 -49.8,-6.8 -58.8,-30.8 l -58.9,-157.9 c -7.8,-21.2 -28.9,-34.1 -51.2,-31.6 -87.6,10.7 -176.2,7.5 -262.8,-8.9 -20.4,-4.2 -41.4,5.4 -51.8,23.8 l -93.8,164.7 c -12.6,22.2 -39.9,31.1 -63.2,21.1 l -191.4,-82.9 c -23,-9.9 -34.4,-36 -26.4,-59.4 l 3,-9.2 61,-182.1 c 6.5,-19.5 0.3,-40.6 -15.6,-53.7 l -0.1,-0.2 c -38.1,-31.3 -74,-66.4 -107.1,-105.4 -17.7,-20.8 -34,-42.2 -49.5,-64.2 -10.6,-15.4 -29,-23.2 -47.4,-20.2 l -186.6,30.6 c -25.6,4.3 -50.1,-11.9 -56.3,-36.7 l -51.1,-202 c -1.4,-5.8 -1.6,-11.6 -1.2,-17.1 2,-17.8 13.9,-34 31.4,-40.6 l 133.4,-49.4 c 16.2,-6.2 28,-20.7 30.9,-37.4 0.7,-4.4 0.9,-9 0.4,-13.7 -13.2,-112.4 -3.6,-226.1 27.8,-334.9 5.6,-18.4 -1.1,-38.1 -15.5,-50.3 -2.1,-1.7 -4.4,-3.2 -6.8,-4.6 l -148.1,-84.3 c -21.5,-12.2 -30.3,-38.6 -20.6,-61.4 l 1.9,-4.5 81.1,-187.2 c 10.5,-23.5 36.8,-35.1 61.1,-27"
         style="fill:#f99746;fill-opacity:1;fill-rule:nonzero;stroke:none"
         id="path36" /><path
         d="m 3765.93,2861.2 h 904.71 c 48.49,41.1 -33.55,134.5 -119.25,140.7 -37.23,2.9 -84.31,-4.9 -138.09,-16.3 -12.45,165.4 -83.55,908.7 -351.5,878.9 -301.28,-33.5 0,-327.4 85.17,-501.4 63.09,-128.9 129.65,-313.8 160.06,-401 -24.46,-5.3 -49.78,-10.5 -75.65,-15.2 -39.93,122.6 -188.52,535 -377.47,511 -221.85,-28.2 -132.67,-193.5 24.57,-291.7 115.36,-72.2 257.02,-174.8 324.33,-224.3 -57.03,-9.3 -116.55,-15.6 -176.94,-14.2 -154.97,3.7 -230.61,-42 -259.94,-66.5"
         style="fill:#a8d29f;fill-opacity:1;fill-rule:nonzero;stroke:none"
         id="path38" /><path
         d="m 25953.2,2883.1 h -1023.1 c -54.8,46.5 38,152.1 134.9,159.2 42.1,3.2 95.3,-5.6 156.1,-18.5 14.1,187 94.5,1027.6 397.5,993.8 340.7,-37.8 0,-370.1 -96.3,-566.9 -71.4,-145.8 -146.6,-354.8 -181,-453.4 27.6,-6 56.3,-11.9 85.5,-17.3 45.2,138.7 213.2,605.1 426.9,577.9 250.8,-31.8 150,-218.8 -27.8,-329.8 -130.5,-81.6 -290.6,-197.6 -366.8,-253.7 64.5,-10.5 131.8,-17.6 200.1,-16 175.3,4.1 260.8,-47.5 294,-75.3"
         style="fill:#a8d29f;fill-opacity:1;fill-rule:nonzero;stroke:none"
         id="path40" /><path
         d="m 14602.8,9122.7 -494.9,-5883.9 c 0,0 -51.8,-356.6 213.5,-357.3 436.2,-1 2171.1,0 2171.1,0 0,0 -328.3,74.3 -324.3,241.3 4.7,196.9 578.4,6055.6 578.4,6055.6 l -2143.8,-55.7"
         style="fill:#d8702a;fill-opacity:1;fill-rule:nonzero;stroke:none"
         id="path42" /><path
         d="m 16655.9,2985.9 c -85.8,-0.2 -1765.5,-3.1 -2190.3,2.4 -185.1,2.3 -217.6,164.6 -219.1,269.6 -0.8,50.4 5.6,87.6 5.6,87.6 l 12.9,153 32.8,389.7 29,344.4 37.2,442.5 31.4,373.5 351.6,4180.9 2143.8,55.6 c 0,0 -241.6,-2451.8 -412.5,-4236.5 -19.1,-198.8 -37.3,-389.5 -54.1,-567.5 -5.4,-56.8 -10.6,-112.4 -15.7,-166.5 -15.9,-168.8 -30.4,-323.9 -43,-460.8 -6.6,-72.2 -12.7,-139.2 -18.3,-200.6 -21.8,-240.7 -34.6,-394.4 -34.7,-423.6 -0.1,-17.1 1.3,-32.9 4.1,-47.7 35.2,-187.5 307.1,-196 339.3,-196"
         style="fill:#f99746;fill-opacity:1;fill-rule:nonzero;stroke:none"
         id="path44" /><path
         d="m 9396.42,12324.5 1205.38,-4841.7 165,-663.1 561.4,-2255.1 h 10429.9 l -2069.2,7759.9 H 9396.42"
         style="fill:#f99746;fill-opacity:1;fill-rule:nonzero;stroke:none"
         id="path46" /><path
         d="m 9396.41,12324.5 -167.05,-55.7 1876.74,-7872.7 222.1,168.5 -1931.79,7759.9"
         style="fill:#d8702a;fill-opacity:1;fill-rule:nonzero;stroke:none"
         id="path48" /><path
         d="m 11106.1,4396.1 h 10365.7 l 286.3,168.5 H 11328.2 l -222.1,-168.5"
         style="fill:#ed7d2b;fill-opacity:1;fill-rule:nonzero;stroke:none"
         id="path50" /><path
         d="m 14746.3,2879.3 h 2244.3 v 106.602 h -2244.3 z"
         style="fill:#f99746;fill-opacity:1;fill-rule:nonzero;stroke:none"
         id="path52" /><path
         d="m 16420.1,4396.2 -11.6,-81.6 -2110.7,-426.4 29,344.4 13.8,163.6 h 2079.5"
         style="fill:#e27329;fill-opacity:1;fill-rule:nonzero;stroke:none"
         id="path54" /><path
         d="m 16655.9,2985.9 h -1812 c -160.7,0.6 -294.1,1.3 -378.3,2.4 -185.1,2.3 -217.6,164.6 -219.1,269.6 l 2100.7,395.3 c -21.8,-240.7 -34.6,-394.4 -34.7,-423.6 0,-0.6 0,-1.1 0,-1.6 0,-16.5 1.4,-31.8 4.1,-46.1 35.2,-187.5 307.1,-196 339.3,-196"
         style="fill:#f38a38;fill-opacity:1;fill-rule:nonzero;stroke:none"
         id="path56" /><path
         d="m 15626.8,2985 c -273.4,0 -555.3,0.2 -782.9,0.9 v 0 h 1812 v 0 c -44.7,-0.1 -522.1,-0.9 -1029.1,-0.9"
         style="fill:#f38a38;fill-opacity:1;fill-rule:nonzero;stroke:none"
         id="path58" /><path
         d="M 9396.41,12324.5 H 19688.9 L 21358.9,6088 H 10949 l -1552.59,6236.5"
         style="fill:#ed7d2b;fill-opacity:1;fill-rule:nonzero;stroke:none"
         id="path60" /><path
         d="m 20873.4,6358.2 h -9636.9 l -344.4,1371.9 -133.2,530.8 -54.3,216.5 -354,1409.8 -18.3,73.4 -187.1,745.2 -83.7,333.4 -71.39,284.4 -167.4,666.8 h 9497.99 l 183.8,-666.8 78.4,-284.4 91.9,-333.4 605.6,-2196.7 v -0.1 l 51.3,-186.1 23.9,-86.4 418.1,-1516.6 99.7,-361.7"
         style="fill:#505aba;fill-opacity:1;fill-rule:nonzero;stroke:none"
         id="path62" /><path
         d="M 14859.4,6088 11331.7,4546.4 10949,6088 Z"
         style="fill:#ed7d2b;fill-opacity:1;fill-rule:nonzero;stroke:none"
         id="path64" /><path
         d="m 15290.5,11074 c -651.6,0 -1093.8,-530.1 -985.8,-1181.7 108.1,-651.6 726.1,-1181.7 1377.7,-1181.7 651.6,0 1093.8,530.1 985.7,1181.7 -108,651.6 -726,1181.7 -1377.6,1181.7 z m 432.8,-2609.6 c -787.4,0 -1534.2,640.6 -1664.8,1427.9 -130.5,787.4 403.8,1427.9 1191.1,1427.9 787.4,0 1534.2,-640.5 1664.7,-1427.9 130.6,-787.3 -403.7,-1427.9 -1191,-1427.9"
         style="fill:#e6f0ff;fill-opacity:1;fill-rule:nonzero;stroke:none"
         id="path66" /><path
         d="m 15723.8,8461.2 c -789.2,0 -1537.6,642 -1668.5,1431.1 -130.9,789.2 404.7,1431.2 1193.8,1431.2 428.7,0 862.6,-189.8 1190.7,-520.8 253.1,-255.4 422.8,-578.7 477.8,-910.4 11.6,-69.8 -35.6,-126.3 -105.4,-126.3 -69.8,0 -135.7,56.5 -147.3,126.3 -45.3,273.1 -185,539.3 -393.4,749.6 -270.1,272.5 -627.5,428.9 -980.5,428.9 -649.8,0 -1090.8,-528.7 -983,-1178.5 107.8,-649.8 724.1,-1178.4 1373.9,-1178.4 69.8,0 135.7,-56.6 147.3,-126.4 11.6,-69.8 -35.6,-126.3 -105.4,-126.3"
         style="fill:#f99746;fill-opacity:1;fill-rule:nonzero;stroke:none"
         id="path68" /><path
         d="m 18433,7364.8 22.6,-136.5 c 12.4,-74.5 -38.5,-135.5 -113,-135.5 h -4783.8 c -74.5,0 -145.5,61 -157.9,135.5 l -22.6,136.5 c -12.4,74.5 38.4,135.5 112.9,135.5 h 4783.9 c 74.5,0 145.5,-61 157.9,-135.5"
         style="fill:#e6f0ff;fill-opacity:1;fill-rule:nonzero;stroke:none"
         id="path70" /><path
         d="m 16887.5,7500.3 67.6,-407.5 h -3396.3 c -74.5,0 -145.5,61 -157.9,135.5 l -22.6,136.5 c -12.4,74.5 38.4,135.5 112.9,135.5 h 3396.3"
         style="fill:#f99746;fill-opacity:1;fill-rule:nonzero;stroke:none"
         id="path72" /><path
         d="m 16182.7,7500.3 -308.2,-407.5 h -703.1 l 308.2,407.5 h 703.1"
         style="fill:#f78248;fill-opacity:1;fill-rule:nonzero;stroke:none"
         id="path74" /><path
         d="m 16887.5,7500.3 67.6,-407.5 h -651.7 l 308.3,407.5 h 275.8"
         style="fill:#f78248;fill-opacity:1;fill-rule:nonzero;stroke:none"
         id="path76" /><path
         d="m 15050.6,7500.3 -308.2,-407.5 h -703.1 l 308.2,407.5 h 703.1"
         style="fill:#f78248;fill-opacity:1;fill-rule:nonzero;stroke:none"
         id="path78" /><path
         d="m 13918.6,7500.3 -308.2,-407.5 h -51.6 c -74.5,0 -145.5,61 -157.9,135.5 l -22.6,136.5 c -12.4,74.5 38.4,135.5 112.9,135.5 h 427.4"
         style="fill:#f78248;fill-opacity:1;fill-rule:nonzero;stroke:none"
         id="path80" /><path
         d="m 14954.3,10081.7 h -266.6 l -13.5,81.8 h 372.6 l 11.7,-70.4 -163.1,-459.8 h -104.5 l 163.4,448.4"
         style="fill:#e6f0ff;fill-opacity:1;fill-rule:nonzero;stroke:none"
         id="path82" /><path
         d="m 15521.8,9898.4 c -17.4,104.5 -85.3,190.2 -167.1,190.2 -81.8,0 -120.3,-83.4 -102.6,-190.2 17.4,-104.5 84.6,-190.1 167.1,-190.1 82.6,0 120.2,84.1 102.6,190.1 z m -365.9,0 c -25.1,151.5 47,274.2 186.3,274.2 138.6,0 250.4,-121.2 275.8,-274.2 25.1,-151.5 -47,-274.2 -186.3,-274.2 -139.4,0 -250.4,121.2 -275.8,274.2"
         style="fill:#e6f0ff;fill-opacity:1;fill-rule:nonzero;stroke:none"
         id="path84" /><path
         d="m 16222.9,9762.8 c -7,42.4 -37,77.3 -71.1,77.3 -35.6,0 -51,-34.9 -44,-77.3 7.2,-43.2 37.1,-77.2 71.1,-77.2 35.6,0 51.1,34.8 44,77.2 z m -182.5,0 c -12.2,73.5 28.3,135.6 103.3,135.6 74.2,0 134.3,-61.3 146.7,-135.6 12.1,-73.5 -28.3,-135.6 -103.3,-135.6 -74.2,0 -134.4,61.4 -146.7,135.6 z m 54.7,400.7 h 75 l -299.9,-530.2 h -74.9 z m -237.5,-129.5 c -7.1,42.4 -37.1,77.3 -71.2,77.3 -35.6,0 -51,-34.9 -44,-77.3 7.2,-43.2 37.1,-77.3 71.2,-77.3 35.6,0 51,34.9 44,77.3 z m -182.6,0 c -12.2,73.5 28.3,135.6 103.3,135.6 74.2,0 134.4,-61.4 146.7,-135.6 12.2,-73.5 -28.3,-135.6 -103.3,-135.6 -74.2,0 -134.4,61.4 -146.7,135.6"
         style="fill:#e6f0ff;fill-opacity:1;fill-rule:nonzero;stroke:none"
         id="path86" /><path
         d="m 15352.4,7822.3 h 28.7 l 22.8,-137.3 h 85.9 l 4.3,-26.2 h -114.6 l -27.1,163.5"
         style="fill:#e6f0ff;fill-opacity:1;fill-rule:nonzero;stroke:none"
         id="path88" /><path
         d="m 15604.6,7720.2 c -3.6,21.8 -22.2,39.7 -44.4,39.7 -22.6,0 -34.2,-17.7 -30.5,-39.7 3.6,-21.4 22.2,-39.6 44.2,-39.6 22.8,0 34.3,17.9 30.7,39.6 z m -103.2,0 c -5.8,35.3 17.4,64.5 55.2,64.5 37.8,0 70.4,-28.7 76.3,-64.5 5.8,-35 -17.4,-64.2 -55.4,-64.2 -37.6,0 -70.2,28.8 -76.1,64.2"
         style="fill:#e6f0ff;fill-opacity:1;fill-rule:nonzero;stroke:none"
         id="path90" /><path
         d="m 15739.3,7710.4 c -7.7,2.8 -18.1,4.9 -29,4.9 -17.8,0 -27.1,-7.2 -25,-19.6 1.9,-11.6 13.5,-18.2 26.8,-18.2 18.7,0 30.9,10.5 28.4,25.9 z m 7.9,-51.6 -2.5,15.2 c -6.8,-10 -18.3,-17.7 -37,-17.7 -23.4,0 -46.1,13.3 -50.3,38.5 -4.5,27.3 14.6,40.4 43.3,40.4 14.9,0 24.8,-2.1 34.9,-5.2 l -0.4,2.4 c -2.8,17 -15.1,26.4 -34.7,26.4 -13.8,0 -23.5,-3.1 -34,-7.7 l -11.4,22.6 c 12.5,6.1 25.1,10.3 45.2,10.3 36.4,0 57.3,-19.2 62.8,-52.1 l 12.1,-73.1 h -28"
         style="fill:#e6f0ff;fill-opacity:1;fill-rule:nonzero;stroke:none"
         id="path92" /><path
         d="m 15891.9,7720.7 c -3.9,23.8 -23.3,39.5 -42.2,39.5 -19.4,0 -33,-15 -28.9,-40 4,-23.8 22.9,-39.4 42,-39.4 18.9,0 33.1,15.9 29.1,39.9 z m -99.6,0 c -6.8,40.9 17.1,64 46.5,64 20.4,0 34.9,-10.3 45.7,-21.7 l -11,66.3 h 28.2 l 28.3,-170.5 h -28.3 l -3.4,20.6 c -7,-12.9 -18.1,-23.1 -38.2,-23.1 -28.9,0 -61,23.1 -67.8,64.4"
         style="fill:#e6f0ff;fill-opacity:1;fill-rule:nonzero;stroke:none"
         id="path94" /><path
         d="m 15946.4,7782.1 h 28.3 l 20.4,-123.3 h -28.2 z m -8.7,45.8 h 30.3 l 4.5,-26.9 h -30.4 l -4.4,26.9"
         style="fill:#e6f0ff;fill-opacity:1;fill-rule:nonzero;stroke:none"
         id="path96" /><path
         d="m 16011.6,7782.1 h 28.2 l 3.2,-19.1 c 6,11.6 15.8,21.7 34.9,21.7 27.8,0 47,-18.7 51.7,-47.4 l 13.1,-78.5 h -28.3 l -11.6,70.1 c -3.2,19.1 -14.6,30.1 -31.4,30.1 -16.3,0 -25.9,-11.4 -22.7,-30.6 l 11.6,-69.6 h -28.3 l -20.4,123.3"
         style="fill:#e6f0ff;fill-opacity:1;fill-rule:nonzero;stroke:none"
         id="path98" /><path
         d="m 16258.9,7726.8 c -3.4,20.3 -22.3,34.1 -41.9,34.1 -19.6,0 -32.8,-13.6 -29.3,-34.3 3.4,-20.4 21.3,-34.1 40.7,-34.1 19.6,0 33.8,14 30.5,34.3 z m -78.5,-91.1 6.9,21.3 c 14.5,-8.2 29.3,-13.1 46.1,-13.1 25.2,0 36.8,13.1 32.7,37.8 l -1.6,9.6 c -8.1,-13.3 -19.3,-22.6 -39.7,-22.6 -28.9,0 -59.5,21.4 -65.6,58.1 -6.1,36.4 17.7,57.9 46.4,57.9 20.8,0 35.2,-9.6 46.7,-21 l -3.1,18.4 h 28.3 l 16.2,-98 c 3.5,-20.8 0.7,-36.2 -7.9,-46.5 -9.4,-11.2 -25.7,-16.6 -47.9,-16.6 -20.3,0 -40.1,5.2 -57.5,14.7"
         style="fill:#e6f0ff;fill-opacity:1;fill-rule:nonzero;stroke:none"
         id="path100" /><path
         d="m 8766.2,8749.2 c 0,0 24.12,262.9 -269.65,262.9 0,0 89.02,-24.1 135.07,-72.4 0,0 -187.37,110 -391.27,-59 -203.9,-169 -77.21,-592.9 -139.22,-673.4 -62,-80.5 -303.46,-96.6 -273.95,-356.9 29.51,-260.2 766.34,-586.2 719.02,-801.5 0,0 288.76,424.5 82.28,618.2 0,0 100.64,-94.8 110.9,-207.5 0,0 27.3,220 -112.69,290.4 -123.89,62.3 -225.37,290 -214.63,330.7 10.73,40.7 354.14,668.5 354.14,668.5"
         style="fill:#2c3a64;fill-opacity:1;fill-rule:nonzero;stroke:none"
         id="path102" /><path
         d="m 8477,7486.8 c 0,0 219.46,-907.9 434.9,-1089.4 129.5,-109.1 514.53,-359.5 514.53,-359.5 l -160.16,-58.1 c 0,0 -534.04,180.4 -653.6,320.9 -119.56,140.6 -446.92,845 -446.92,845 L 8477,7486.8"
         style="fill:#ffb27d;fill-opacity:1;fill-rule:nonzero;stroke:none"
         id="path104" /><path
         d="m 9737.28,5706.1 -51.59,127.7 c -55.3,136.9 -188.2,226.6 -335.9,226.6 H 8398.36 V 5456.7 2879.3 h 3935.74 v 2577.4 h -2227.2 c -162.5,0 -308.76,98.7 -369.62,249.4"
         style="fill:#6376e5;fill-opacity:1;fill-rule:nonzero;stroke:none"
         id="path106" /><path
         d="m 6414.33,5891.7 c 1.92,-3.4 3.98,-7.1 6.04,-10.6 48.02,-83.5 158.19,-288.1 279.54,-511.9 57.4,-106.2 117.5,-216.7 174.51,-320.7 98.23,-179.6 187.6,-339.4 239.74,-423.9 53.03,-85.9 92.07,-146.3 107.86,-170.4 l 0.13,-0.2 c 4.75,-7.4 5.78,-16.1 5.14,-24.9 -5.52,-75.7 -3.98,-151 3.47,-225.1 73.19,-728.2 564.23,-1118.4 564.23,-1118.4 l 146,-21.6 c 0,0 -206.61,765.5 -267.48,1198.2 -10.27,73.3 -14.77,132.8 -11.18,171.6 10.8,112.7 -9.24,278.2 -47.12,468.3 -67.41,337.7 -191.07,752.2 -298.55,1084 -6.81,21.2 -212.13,763.9 -212.13,763.9 -172.32,-150.6 -800.89,-212.8 -800.89,-212.8 0,0 -106.57,-259.1 110.69,-645.5"
         style="fill:#2f539b;fill-opacity:1;fill-rule:nonzero;stroke:none"
         id="path108" /><path
         d="m 8247.41,2879.3 h -609.35 c 0,0 -14.6,92.9 17.22,163.3 30.5,67.6 73.97,69.8 5.55,175.7 38.73,-39.8 163.19,-56.3 251.29,-44.5 10.79,-17.5 69.59,-134.9 105.64,-160.8 39.82,-28.6 217.39,-18.4 229.65,-133.7"
         style="fill:#233862;fill-opacity:1;fill-rule:nonzero;stroke:none"
         id="path110" /><path
         d="m 6414.33,5891.7 c 1.92,-3.4 3.98,-7.1 6.04,-10.6 48.02,-83.5 307.75,-563.2 429.09,-787.1 -140.6,578.5 -42.8,1157 -42.8,1157 l -392.33,-359.3"
         style="fill:#233862;fill-opacity:1;fill-rule:nonzero;stroke:none"
         id="path112" /><path
         d="m 8683.1,8786.2 c 3.98,16 -348.03,-159.1 -365.88,-178.9 -165.09,-183.1 -118.02,-422.1 -23.55,-424.4 60.58,-1.5 48.84,-102.2 48.84,-102.2 l 674.93,285.5 c 0,0 -81.26,473.9 -334.34,420"
         style="fill:#2c3a64;fill-opacity:1;fill-rule:nonzero;stroke:none"
         id="path114" /><path
         d="m 8456.29,7623.2 c 0,0 102.71,-205.2 89.89,-371.7 0,0 -123.85,-195.5 -445.05,-245 0,0 276.16,616.8 355.16,616.7"
         style="fill:#aec3ff;fill-opacity:1;fill-rule:nonzero;stroke:none"
         id="path116" /><path
         d="m 6889.36,6491.9 2.07,113.9 c -227.07,-28.6 -782.93,271.4 -782.93,271.4 0,0 -237.55,-158 -270.07,-609.3 -15.88,-220.2 -116.29,-1151.6 -127.39,-1429.7 -4.06,-100.8 -5.4,-172.7 -5.86,-201.5 l 0.03,-0.3 c -0.14,-8.7 -4.25,-16.5 -9.65,-23.4 -46.99,-59.7 -87.75,-123 -123.04,-188.6 -346.48,-644.7 -165.29,-1520.6 -165.29,-1520.6 l 80.46,20.4 c 0,0 292.97,908.1 484.44,1300.9 32.5,66.6 62.03,118.4 86.72,148.4 72,87.5 147.91,236 222.74,414.7 141.45,337.9 607.77,1703.7 607.77,1703.7"
         style="fill:#2f539b;fill-opacity:1;fill-rule:nonzero;stroke:none"
         id="path118" /><path
         d="m 5891.79,2879.3 h -609.35 c 0,0 -14.6,92.9 17.23,163.3 30.5,67.6 78.26,98.3 66.82,180.1 38.72,-39.8 101.83,-84.5 189.92,-72.6 10.8,-17.5 69.68,-111.2 105.73,-137.1 39.82,-28.6 217.39,-18.4 229.65,-133.7"
         style="fill:#233862;fill-opacity:1;fill-rule:nonzero;stroke:none"
         id="path120" /><path
         d="m 8060,6875.7 c -81.86,-14 13.36,-79.1 -99.21,-91.3 -160.23,-17.5 -325.66,-29.5 -412.32,-64 -31.6,-12.6 -52.74,-28.2 -59.34,-48.1 -37.57,-112.9 -275.46,-307 -275.46,-307 -1061.05,48.3 -1129.39,521.2 -1129.39,521.2 688.64,668.8 1274.48,1033.3 1758.66,1078.4 117.85,11 276.68,-3.7 351.2,-36.9 169.35,-75.4 262.15,-304.8 262.15,-304.8 0,0 -85.3,-694.5 -396.29,-747.5"
         style="fill:#aec3ff;fill-opacity:1;fill-rule:nonzero;stroke:none"
         id="path122" /><path
         d="m 7960.79,6784.4 c -160.23,-17.5 -325.66,-29.5 -412.32,-64 -250.51,499.2 214.31,927.2 214.31,927.2 0,0 162.91,-663 198.01,-863.2"
         style="fill:#94b0ed;fill-opacity:1;fill-rule:nonzero;stroke:none"
         id="path124" /><path
         d="m 8099.02,7737.2 c 0,0 -402.93,22 -474.52,-231 -71.6,-252.9 134.32,-1262.7 178.69,-1366.9 80.79,-189.8 488.17,-754.9 488.17,-754.9 l 130.57,67.7 c 0,0 -262.25,827.2 -320.8,909.1 -91.91,128.5 118.49,1265.9 -2.11,1376"
         style="fill:#ffb27d;fill-opacity:1;fill-rule:nonzero;stroke:none"
         id="path126" /><path
         d="m 8421.93,5452.1 c 0,0 33.7,-29.3 60.8,-62.4 27.11,-33.2 3.27,-45.1 81.1,-195.1 0,0 -3.98,-20.8 -20.89,-17 -16.9,3.8 -75.64,62 -105.77,57.8 0,0 -21.53,-17.7 -23.89,-76.5 -2.21,-55 -2.37,-176.6 -11.94,-199.4 -9.57,-22.9 -79.5,95.8 -113.91,181.5 -30.17,75.1 -0.77,328.7 -0.77,328.7 l 135.27,-17.6"
         style="fill:#ffb27d;fill-opacity:1;fill-rule:nonzero;stroke:none"
         id="path128" /><path
         d="m 7545.03,7167.9 c 1.05,-5.9 381.3,-69.9 619.13,50.8 0,0 198.69,622.4 -85.24,592.6 -283.94,-29.7 -452.07,-119.2 -459.22,-255.1 -7.16,-135.9 -74.67,-388.3 -74.67,-388.3"
         style="fill:#aec3ff;fill-opacity:1;fill-rule:nonzero;stroke:none"
         id="path130" /><path
         d="m 8185.07,7884.4 c 4.14,-50.4 10.56,-109.4 76.48,-177.3 50.51,-52 123.49,-92.5 174.76,-41.3 26.15,26.1 61.44,65.1 79.31,95.8 44.3,76.2 97.07,154 97.07,154 l -228.05,199.8 -13.61,11.9 c -59.74,-104.3 -118.48,-154.4 -169.89,-192.8 -15.54,-11.6 -17.65,-30.8 -16.07,-50.1"
         style="fill:#ffb27d;fill-opacity:1;fill-rule:nonzero;stroke:none"
         id="path132" /><path
         d="m 8612.67,7915.5 c 0,0 -52.72,-77.7 -97.04,-153.9 -141.74,87.4 -141.9,262.9 -130.98,353.8 l 228.02,-199.9"
         style="fill:#ed985f;fill-opacity:1;fill-rule:nonzero;stroke:none"
         id="path134" /><path
         d="m 8618.99,7815.4 c 0,0 -344.18,191.5 -221.61,404 122.56,212.5 160.69,380.3 385.61,267 224.93,-113.3 220.48,-218.8 196.82,-299.6 -23.65,-80.9 -268.14,-415.8 -360.82,-371.4"
         style="fill:#ffb27d;fill-opacity:1;fill-rule:nonzero;stroke:none"
         id="path136" /><path
         d="m 9037.95,8310.7 c -15.76,94.3 -63.69,103.4 -97.11,97.1 -127.1,210.2 -334.76,128.1 -334.76,128.1 -110.91,-139.2 -271.27,-162.9 -271.27,-162.9 0,0 39.95,-74.3 204.5,-120.3 50.27,-14.1 107.32,-5.6 162.34,12.9 -114.17,-63.6 -233.56,-88 -233.56,-88 216.85,-19.8 423.18,178.4 444.58,199.6 10,-30.7 27.55,-95 17.05,-142 -14.28,-64 -71.01,-179.7 -36.38,-194.7 0,0 168.25,128.7 144.61,270.2"
         style="fill:#2c3a64;fill-opacity:1;fill-rule:nonzero;stroke:none"
         id="path138" /><path
         d="m 9489.4,6037.5 c 0,0 -96.04,-72.1 -23.65,-119.1 72.38,-47.1 201.6,-59.8 202.14,-29 1.78,103.7 -49.95,177.5 -178.49,148.1"
         style="fill:#ffb27d;fill-opacity:1;fill-rule:nonzero;stroke:none"
         id="path140" /><path
         d="m 9429.48,3826.2 h 2033.62 c 83.8,0 148.4,128.2 149.5,218.9 3.3,284.9 -302.5,740.1 -995.6,538.6 0,0 -195.6,527.9 -882.82,463.8 -403.53,-37.6 -628.43,-449.3 -655.49,-816.3 -16.15,-219.1 147.68,-405 350.79,-405"
         style="fill:#aec3ff;fill-opacity:1;fill-rule:nonzero;stroke:none"
         id="path142" /><path
         d="m 10148.2,4256.5 h 393.8 v -904.9 h -393.8 v 904.9"
         style="fill:#f99746;fill-opacity:1;fill-rule:nonzero;stroke:none"
         id="path144" /><path
         d="m 10833.9,4073.8 h -977.61 l 488.81,459.4 z"
         style="fill:#f99746;fill-opacity:1;fill-rule:nonzero;stroke:none"
         id="path146" /><path
         d="m 19546.3,8309 -513.9,-118.1 -255.3,-461.4 -190.9,1053.8 960.1,-474.3"
         style="fill:#233862;fill-opacity:1;fill-rule:nonzero;stroke:none"
         id="path148" /><path
         d="m 19331.5,7858.6 -75,-56.5 -326.9,433.9 75,56.5 326.9,-433.9"
         style="fill:#233862;fill-opacity:1;fill-rule:nonzero;stroke:none"
         id="path150" /><path
         d="m 11537.4,10949.2 c -16.9,-19.4 -19.1,-41.1 -10.7,-64.3 l 0.2,-0.3 c 15.5,-42.8 66.6,-90.6 126.1,-138.3 7.6,-6.2 14.4,-11.8 20.3,-16.9 1.5,-1.4 3,-2.7 4.5,-4.1 1.2,-1.1 2.3,-2.2 3.5,-3.2 55.4,-51.1 34.6,-62.8 134.2,-166.5 113.6,-118.2 191.8,-120.3 214,-109.5 18.8,9.1 -19.4,71.8 -61.8,142.3 -2,3.4 -4,6.8 -6.1,10.2 -5.7,9.4 -11.3,18.9 -16.9,28.3 -49.6,84.8 -36.9,124.6 -25.1,250.8 9.5,102.5 159.5,572.8 159.5,572.8 l -217.7,37.5 c 0,0 -65.5,-374.5 -137.7,-432.2 -38.7,-30.7 -81.9,-31.1 -119,-53.9 -2.6,-1.6 -5.2,-3.2 -7.7,-4.8 -21.1,-14 -42.6,-28.5 -59.6,-47.9"
         style="fill:#ffb27d;fill-opacity:1;fill-rule:nonzero;stroke:none"
         id="path152" /><path
         d="m 11537.4,10949.2 c -16.9,-19.4 -19.1,-41.1 -10.7,-64.3 l 0.2,-0.3 c 18.9,-42.7 68.8,-90.3 126.3,-137.9 7.5,-6.3 14.2,-12 20.1,-17.3 1.5,-1.4 3,-2.7 4.5,-4.1 1.2,-1.1 2.3,-2.2 3.5,-3.2 55.4,-51.1 34.6,-62.8 134.2,-166.5 113.6,-118.2 191.8,-120.3 214,-109.5 18.8,9.1 -19.4,71.8 -61.8,142.3 -22.1,8.1 -124.8,49.8 -202.4,149.2 -65.9,84.1 -110.7,191.3 -155.5,257.1 -5,0.9 -7.9,1.4 -12.8,2.4 -21.1,-14 -42.6,-28.5 -59.6,-47.9"
         style="fill:#233862;fill-opacity:1;fill-rule:nonzero;stroke:none"
         id="path154" /><path
         d="m 13292.6,11085.1 c 13.4,-67.2 109.2,-56 216.2,-29.8 107,26.1 81.6,-4.9 233.8,11.9 152.3,16.9 198.5,73.7 203.1,96.3 4.2,20.1 -71.1,27.2 -151.8,36.5 -10.1,1.1 -20.3,2.4 -30.5,3.6 -91.2,11.5 -157.9,70.3 -240.7,118.6 -78.4,45.7 -195.4,232.1 -195.4,232.1 l -208.8,-16.6 c 0,0 109.6,-166.4 152,-238.8 24.9,-42.6 23.6,-98.9 20.5,-142.3 -1.6,-23.7 -3.2,-47.8 1.6,-71.5"
         style="fill:#ffb27d;fill-opacity:1;fill-rule:nonzero;stroke:none"
         id="path156" /><path
         d="m 13508.8,11055.3 c 107,26.1 81.6,-4.9 233.8,11.9 152.3,16.9 198.5,73.7 203.1,96.3 4.2,20.1 -71.1,27.2 -151.8,36.5 l -0.7,-1.6 c 0,0 -91.4,-64.7 -218.1,-67.8 -103.4,-2.5 -212.8,27.1 -284.1,26 -1.6,-23.7 -3.2,-47.8 1.6,-71.5 13.4,-67.2 109.2,-56 216.2,-29.8"
         style="fill:#233862;fill-opacity:1;fill-rule:nonzero;stroke:none"
         id="path158" /><path
         d="m 12492.2,12420.6 -195.2,-525.4 -254.9,-686 c 0,0 -69.2,-6.6 -135.4,12.4 -61,17.6 -131,63.8 -131,63.8 0,0 70.8,736.5 202.8,1159.3 33.9,108.5 71.8,196.3 113.6,245.7 204.7,241.9 400.1,-269.8 400.1,-269.8"
         style="fill:#94b0ed;fill-opacity:1;fill-rule:nonzero;stroke:none"
         id="path160" /><path
         d="m 12293.7,13254.9 c -111.1,35.8 -401.1,0.5 -715.6,-56.4 -86.9,-15.7 -174.5,24 -220.3,99.5 l -791.5,61.8 c 0,0 -261.2,-579.2 -118.2,-948.3 21,-54.2 67.1,-88.1 138.3,-89.2 0,0 478.3,-0.7 631.3,-0.7 393.6,0 833.1,270.6 889.9,282 93.1,18.6 130.3,-167.5 223.3,-362.9 93.1,-195.4 874.7,-865.4 874.7,-865.4 0,0 120.1,-1.2 169.7,17.5 53.4,20 72.9,46 72.9,46 0,0 -866,1723 -1154.5,1816.1"
         style="fill:#aec3ff;fill-opacity:1;fill-rule:nonzero;stroke:none"
         id="path162" /><path
         d="m 11273.7,15622.3 c -58.7,35 -116,40.4 -151.2,39.4 -24.4,-0.7 -48.8,0.9 -73,4.4 -302.1,44.3 -484,-394.5 -494.6,-527.1 -19.6,-243.4 -148.4,-280.5 -329.6,-433 -363.47,-305.6 -256.9,-660.8 -58.2,-792.8 119.3,-79.2 329.4,0 329.4,0 3,-2.1 574.8,319.6 856.7,474.8 422.5,60.1 90.3,1133.3 -79.5,1234.3"
         style="fill:#233862;fill-opacity:1;fill-rule:nonzero;stroke:none"
         id="path164" /><path
         d="m 11116.9,14520.1 c 1.3,-0.8 -138.7,-48.5 -232.2,-7.1 -88,38.9 -154.7,183.7 -153.4,183.8 40,1.8 84,36.8 117.8,266.5 l 17.1,-6.1 286.7,-103.1 c 0,0 -20.8,-92 -34.2,-179.6 -11.4,-73.5 -17.4,-144 -1.8,-154.4"
         style="fill:#ffb27d;fill-opacity:1;fill-rule:nonzero;stroke:none"
         id="path166" /><path
         d="m 11152.9,14854.1 c 0,0 -11.5,-49.7 -28.2,-142.4 -164.6,29.7 -235.3,156.5 -258.5,245.5 l 286.7,-103.1"
         style="fill:#ed975d;fill-opacity:1;fill-rule:nonzero;stroke:none"
         id="path168" /><path
         d="m 11195.6,14762.8 c 0,0 -392.3,52.6 -355.7,296.4 36.5,243.7 10.5,414.7 262.5,391.4 251.9,-23.3 286.5,-123.6 294.1,-208 7.6,-84.3 -98,-487.2 -200.9,-479.8"
         style="fill:#ffb27d;fill-opacity:1;fill-rule:nonzero;stroke:none"
         id="path170" /><path
         d="m 11382.2,15376.3 c 0,0 -251,-216.4 -421.8,-233.9 -170.8,-17.4 -235.5,37.4 -235.5,37.4 0,0 100.7,83.6 161.3,218.5 17.8,39.7 55.6,67 99,70.8 121.9,10.5 353.1,15.3 397,-92.8"
         style="fill:#233862;fill-opacity:1;fill-rule:nonzero;stroke:none"
         id="path172" /><path
         d="m 11225.3,15395.6 c 0,0 84,-81.2 110.4,-141.4 25.6,-58.2 33.2,-197.2 12.9,-252.4 0,0 130.9,254.5 56.8,378.1 -78.6,131.1 -180.1,15.7 -180.1,15.7"
         style="fill:#233862;fill-opacity:1;fill-rule:nonzero;stroke:none"
         id="path174" /><path
         d="m 11447.2,13942.4 c -11.9,-794 -3.3,-628.1 -90.1,-703.4 -20.9,-18.1 -79.8,-28.9 -157.2,-34.1 -243.4,-16.1 -671.4,24 -687.7,69 -56.1,155.7 -16.5,204 -63.3,442.4 -4.9,25.3 -11,52.7 -18.1,82.6 -39,163.7 -77,219.4 61.5,482.4 125.7,238.2 256.3,431.5 268,424.6 331.6,-196.9 358.3,-31.4 358.3,-31.4 0,0 334.4,-344.9 328.6,-732.1"
         style="fill:#f99746;fill-opacity:1;fill-rule:nonzero;stroke:none"
         id="path176" /><path
         d="m 12297,11895.2 -254.9,-686 c 0,0 -69.2,-6.6 -135.4,12.4 -61,17.6 -131,63.8 -131,63.8 0,0 70.8,736.5 202.8,1159.3 l 318.5,-549.5"
         style="fill:#aec3ff;fill-opacity:1;fill-rule:nonzero;stroke:none"
         id="path178" /><path
         d="m 11118.7,14674.5 c 0,0 341.1,-57.8 381.2,-204.7 40.1,-146.9 171.9,-1038.5 171.9,-1038.5 0,0 -96.2,-94 -176.3,-13.9 -80.1,80.2 -252.2,834.3 -252.2,834.3 l -124.6,422.8"
         style="fill:#f99746;fill-opacity:1;fill-rule:nonzero;stroke:none"
         id="path180" /><path
         d="m 11199.9,13204.9 c -243.4,-16.1 -671.4,24 -687.7,69 -56.1,155.7 -16.5,204 -63.3,442.4 l 117.4,330.6 c 0,0 -19.4,-368.2 89.2,-465 108.4,-96.9 444.5,-187 497.3,-267.9 25.5,-38.8 42.2,-77.8 47.1,-109.1"
         style="fill:#ed7d2b;fill-opacity:1;fill-rule:nonzero;stroke:none"
         id="path182" /><path
         d="m 10921,13359.8 c 0,0 240.2,53.5 278.9,32.2 38.8,-21.4 133.5,-99 145.3,-126 11.9,-27 -86.2,20.5 -118.2,29.1 -20.6,5.5 -75.1,-13.4 -102,-22.4 -113.3,-37.8 -182.8,-18.3 -182.8,-18.3 l -21.2,105.4"
         style="fill:#ffb27d;fill-opacity:1;fill-rule:nonzero;stroke:none"
         id="path184" /><path
         d="m 10760.1,14706 c 0,0 -322.5,-19.8 -434.1,-175.6 -157.2,-219.1 -468.92,-1153.3 -290.2,-1277.8 201.2,-140.3 915.7,-36.8 915.7,-36.8 0,0 23.8,111.2 -9.3,165 -33.1,53.7 -570.7,140.6 -595.5,165.4 -24.8,24.8 310.1,483.8 310.1,558.3 0,74.4 103.3,601.5 103.3,601.5"
         style="fill:#f99746;fill-opacity:1;fill-rule:nonzero;stroke:none"
         id="path186" /><path
         d="m 11211.5,13325.1 c 0,0 50.4,-64.9 66.9,-72.7 16.5,-7.7 27.1,-5.8 27.1,-5.8 l -33.9,61.1 -60.1,17.4"
         style="fill:#ffb27d;fill-opacity:1;fill-rule:nonzero;stroke:none"
         id="path188" /><path
         d="m 11199.9,13392 146.3,-71.1 c 0,0 -6.2,-10.2 -24.2,-9.4 -18,0.9 -63.5,17.5 -63.5,17.5 l -58.6,63"
         style="fill:#ffb27d;fill-opacity:1;fill-rule:nonzero;stroke:none"
         id="path190" /><path
         d="M 12449.3,13224.9 H 10921 v -33.7 h 1514.7 l 13.6,33.7"
         style="fill:#233862;fill-opacity:1;fill-rule:nonzero;stroke:none"
         id="path192" /><path
         d="m 11278.4,13191.2 h 1157.3 l 348.2,865.8 h -1155.6 l -349.9,-865.8"
         style="fill:#233862;fill-opacity:1;fill-rule:nonzero;stroke:none"
         id="path194" /><path
         d="m 12143.6,13624.1 c 8.7,30.4 -8.9,55.1 -39.3,55.1 -30.5,0 -62.2,-24.7 -70.9,-55.1 -8.8,-30.4 8.8,-55.1 39.3,-55.1 30.4,0 62.1,24.7 70.9,55.1"
         style="fill:#ffffff;fill-opacity:1;fill-rule:nonzero;stroke:none"
         id="path196" /><path
         d="m 23447.6,9667.4 c 0,0 560.9,-570.6 589.5,-807.5 28.7,-236.9 -290.7,-606.7 -290.7,-606.7 l -298.8,1414.2"
         style="fill:#ed7d2b;fill-opacity:1;fill-rule:nonzero;stroke:none"
         id="path198" /><path
         d="m 23127.1,3203.4 c 0,0 -21.4,-333.8 -86,-338.5 -8.6,-0.6 -327.6,0.1 -327.6,0.1 l -407.3,3.2 c 0,0 2.9,98.2 122,118.6 119.1,20.5 318.5,103.8 391,261 76.2,165.3 307.9,-44.4 307.9,-44.4"
         style="fill:#0e2644;fill-opacity:1;fill-rule:nonzero;stroke:none"
         id="path200" /><path
         d="m 24034.3,3201.4 c 0,0 -21.5,-333.8 -86.1,-338.5 -8.6,-0.6 -327.6,0.1 -327.6,0.1 l -407.3,3.3 c 0,0 2.9,98.1 122,118.6 119.1,20.5 318.5,103.7 391,260.9 76.2,165.3 308,-44.4 308,-44.4"
         style="fill:#0e2644;fill-opacity:1;fill-rule:nonzero;stroke:none"
         id="path202" /><path
         d="m 22683.9,6792.8 c 0,0 105,-681.5 499.7,-1891.7 394.8,-1210.2 447.8,-1734 447.8,-1734 l 426.3,11 c 0,0 6.5,1321.7 -175.3,1930.2 -181.8,608.6 -34.8,2192.5 -34.8,2192.5 l -1163.7,-508"
         style="fill:#163560;fill-opacity:1;fill-rule:nonzero;stroke:none"
         id="path204" /><path
         d="m 22477.5,7266.4 c 0,0 -17.3,-1026.5 157.5,-2287.4 174.9,-1260.9 113.6,-1795.8 113.6,-1795.8 l 425.3,-15.1 c 0,0 257,1260.4 185.5,1891.5 -71.5,631.1 352.8,2164.1 352.8,2164.1 l -1234.7,42.7"
         style="fill:#1c468a;fill-opacity:1;fill-rule:nonzero;stroke:none"
         id="path206" /><path
         d="m 23306.2,9667.1 -227,-148.2 -327.4,61.8 c 4.6,26.4 26.5,136 46.4,235.2 1.2,5.9 2.4,11.7 3.5,17.4 17.1,84.5 31.8,157 31.8,157 l 306.2,134.3 114.2,50.1 c -0.3,-1.8 -9,-93.7 -10.3,-107.1 -21.9,-238.4 62.6,-400.5 62.6,-400.5"
         style="fill:#ffb27d;fill-opacity:1;fill-rule:nonzero;stroke:none"
         id="path208" /><path
         d="m 22836.1,9743.1 c 6.3,2.6 394.7,116.3 436.8,102.3 42.1,-14 66.9,-95.6 66.9,-95.6 l -635.1,-142.2 c 0,0 50.2,101.5 131.4,135.5"
         style="fill:#ed7d2b;fill-opacity:1;fill-rule:nonzero;stroke:none"
         id="path210" /><path
         d="m 23875.5,7136.7 c -66.4,-300 -1161.4,-333.2 -1443,-60.2 -32.1,31.1 -33.3,175.6 -20.8,370.4 24.5,380.5 101.8,952.8 105.4,1245.3 1.8,141.2 21.5,285.6 47.6,416.8 55.6,279.4 140,498.6 140,498.6 0,0 535.1,171.8 635.1,142.1 481.8,-142.6 602.1,-2313.1 535.7,-2613"
         style="fill:#f99746;fill-opacity:1;fill-rule:nonzero;stroke:none"
         id="path212" /><path
         d="m 22411.7,7446.9 c 24.5,380.5 101.8,952.8 105.4,1245.3 1.8,141.2 21.5,285.6 47.6,416.8 l 321.8,56 c 0,0 354.8,-1363.3 -474.8,-1718.1"
         style="fill:#ed7d2b;fill-opacity:1;fill-rule:nonzero;stroke:none"
         id="path214" /><path
         d="m 22587.1,7977 c 0,0 21.8,-52.5 -24.3,-87.6 -46.2,-35.1 -76.2,-92 -65.7,-133.7 10.5,-41.7 111.3,-109.9 146.4,-99 35,10.9 106.4,65.6 98.8,87.6 -7.7,22 48.3,192.8 -36.9,258.7 -85.2,66 -118.3,-26 -118.3,-26"
         style="fill:#ffb27d;fill-opacity:1;fill-rule:nonzero;stroke:none"
         id="path216" /><path
         d="m 22941.7,9666.3 c 0,0 -305.1,-40.2 -555.9,-408.1 -250.7,-367.8 -415.8,-641.4 -370,-774.2 45.7,-132.9 464.5,-594.3 536.8,-594.5 72.4,-0.1 189.3,52.2 196.1,170.6 0,0 -265.3,471.1 -206.9,537.3 24.9,28.3 355.1,291.3 406,159.6 84.3,-217.8 -6.1,909.3 -6.1,909.3"
         style="fill:#f99746;fill-opacity:1;fill-rule:nonzero;stroke:none"
         id="path218" /><path
         d="m 23220.7,10063.4 c -67.5,-113.7 -318,-211.5 -422.5,-247.5 1.2,5.9 2.4,11.7 3.5,17.4 17.1,84.5 31.8,157 31.8,157 l 306.2,134.3 c 67.6,0.8 108.8,-14.4 81,-61.2"
         style="fill:#fca56b;fill-opacity:1;fill-rule:nonzero;stroke:none"
         id="path220" /><path
         d="m 22718.2,10009.2 c 0,0 492.5,-154.8 584.2,153.3 91.7,308.2 217,495.8 -93.6,607.7 -310.6,111.9 -406.9,12.5 -462.5,-82.9 -55.7,-95.4 -153.9,-629.9 -28.1,-678.1"
         style="fill:#ffb27d;fill-opacity:1;fill-rule:nonzero;stroke:none"
         id="path222" /><path
         d="m 22765.7,10717 c 0,0 30.6,-359 104.9,-343.6 74.2,15.5 141.5,26.9 130.4,-81.3 -11.1,-108.1 -114.2,-232.8 114.4,-252.5 228.7,-19.6 558.8,569.5 496.2,681.3 -180.6,322.7 -1107.1,389.7 -845.9,-3.9"
         style="fill:#163560;fill-opacity:1;fill-rule:nonzero;stroke:none"
         id="path224" /><path
         d="M 28600.7,2806.3 H 2095.42 c -16.85,0 -30.63,13.8 -30.63,30.7 v 11.7 c 0,16.8 13.78,30.6 30.63,30.6 H 28600.7 c 16.8,0 30.6,-13.8 30.6,-30.6 V 2837 c 0,-16.9 -13.8,-30.7 -30.6,-30.7"
         style="fill:#2e3552;fill-opacity:1;fill-rule:nonzero;stroke:none"
         id="path226" /></g></g></svg>
