<svg id="Capa_1" data-name="Capa 1" xmlns="http://www.w3.org/2000/svg" viewBox="0 0 36.7 35.36"><defs><style>.cls-1{fill:#ccc;}</style></defs><title>COM_Add_Icon</title><path class="cls-1" d="M40.53,24.47a1.07,1.07,0,0,0-.85,1.05v9.62a4.75,4.75,0,0,1-4.74,4.74h-23A4.75,4.75,0,0,1,7.2,35.14V25.36a1.06,1.06,0,1,0-2.12,0v9.79A6.87,6.87,0,0,0,11.95,42h23a6.87,6.87,0,0,0,6.86-6.86V25.51A1.06,1.06,0,0,0,40.53,24.47Z" transform="translate(-5.09 -6.64)"/><path class="cls-1" d="M23.75,6.64a1,1,0,0,0-1,1v8.73H14a1,1,0,0,0,0,1.95h8.73V27a1,1,0,0,0,1.66.69,1,1,0,0,0,.28-.69V18.31h8.73a1,1,0,0,0,.69-.28.94.94,0,0,0,.28-.69,1,1,0,0,0-1-1H24.72V7.62A1,1,0,0,0,23.75,6.64Z" transform="translate(-5.09 -6.64)"/></svg>