<svg id="Capa_1" data-name="Capa 1" xmlns="http://www.w3.org/2000/svg" viewBox="0 0 36.43 37.46"><defs><style>.cls-1{fill:#E5B355;}</style></defs><title>COM_Filter_Icon</title><path class="cls-1" d="M24.87,24.26V7.08a1.09,1.09,0,0,0-1-1.08,1,1,0,0,0-1.09,1.05V24.26a5.35,5.35,0,0,0,0,10.48v7.63a1.09,1.09,0,0,0,1,1.08,1,1,0,0,0,1.09-1.05V34.74a5.35,5.35,0,0,0,0-10.48Zm-1,8.48a3.24,3.24,0,1,1,3.24-3.24A3.24,3.24,0,0,1,23.83,32.74Z" transform="translate(-5.6 -6)"/><path class="cls-1" d="M12,15.43V7.08A1.09,1.09,0,0,0,11,6,1,1,0,0,0,9.89,7.05v8.38a5.35,5.35,0,0,0,0,10.48V42.37a1.09,1.09,0,0,0,1,1.08A1,1,0,0,0,12,42.4V25.91a5.34,5.34,0,0,0,0-10.48Zm-1.06,8.48a3.24,3.24,0,1,1,3.24-3.24A3.24,3.24,0,0,1,10.94,23.91Z" transform="translate(-5.6 -6)"/><path class="cls-1" d="M37.74,15.43V7.08a1.09,1.09,0,0,0-1-1.08,1,1,0,0,0-1.09,1.05v8.38a5.35,5.35,0,0,0,0,10.48V42.38a1.09,1.09,0,0,0,1,1.08,1,1,0,0,0,1.09-1.05V25.91a5.34,5.34,0,0,0,0-10.48Zm-1.09,8.48a3.24,3.24,0,1,1,3.24-3.24A3.24,3.24,0,0,1,36.65,23.91Z" transform="translate(-5.6 -6)"/></svg>