<svg id="Capa_1" data-name="Capa 1" xmlns="http://www.w3.org/2000/svg" viewBox="0 0 40.71 30.3"><defs><style>.cls-1{fill:#5f6368;}</style></defs><title>COM_Menu_Icon</title><path class="cls-1" d="M4.84,9.54a1.18,1.18,0,0,0-1.18,1.1A1.14,1.14,0,0,0,4.8,11.82H43.19a1.18,1.18,0,0,0,1.18-1.1,1.14,1.14,0,0,0-1.14-1.19Z" transform="translate(-3.66 -9.54)"/><path class="cls-1" d="M4.84,23.54a1.18,1.18,0,0,0-1.18,1.1A1.14,1.14,0,0,0,4.8,25.83H43.19a1.18,1.18,0,0,0,1.18-1.1,1.14,1.14,0,0,0-1.14-1.19Z" transform="translate(-3.66 -9.54)"/><path class="cls-1" d="M4.84,37.55a1.18,1.18,0,0,0-1.18,1.1A1.14,1.14,0,0,0,4.8,39.84H43.19a1.18,1.18,0,0,0,1.18-1.1,1.14,1.14,0,0,0-1.14-1.19Z" transform="translate(-3.66 -9.54)"/></svg>