<svg id="Capa_1" data-name="Capa 1" xmlns="http://www.w3.org/2000/svg" viewBox="0 0 36.27 36.29"><defs><style>.cls-1{fill:#1A1A1A;}</style></defs><title>COM_Add2_Icon</title><path class="cls-1" d="M24.16,6.85a1.65,1.65,0,0,0-1.66,1.66V23.34H7.67a1.66,1.66,0,0,0,0,3.31H22.51V41.49a1.66,1.66,0,0,0,2.82,1.18,1.61,1.61,0,0,0,.48-1.17V26.66H40.65a1.67,1.67,0,0,0,1.17-.48A1.59,1.59,0,0,0,42.29,25a1.65,1.65,0,0,0-1.66-1.66l-14.82,0V8.51A1.65,1.65,0,0,0,24.16,6.85Z" transform="translate(-6.02 -6.85)"/></svg>