<svg id="Capa_1" data-name="Capa 1" xmlns="http://www.w3.org/2000/svg" viewBox="0 0 36.59 36.59"><defs><style>.cls-1{fill:#f2f2f2;}</style></defs><title>COM_Calendar_Icon</title><path class="cls-1" d="M17.28,22.66v2.29a1.14,1.14,0,0,1-1.14,1.14H13.85a1.14,1.14,0,0,1-1.14-1.14V22.66a1.14,1.14,0,0,1,1.14-1.14h2.29A1.14,1.14,0,0,1,17.28,22.66Zm-1.14,8H13.85a1.14,1.14,0,0,0-1.14,1.14v2.29a1.14,1.14,0,0,0,1.14,1.14h2.29a1.14,1.14,0,0,0,1.14-1.14V31.8A1.14,1.14,0,0,0,16.14,30.66Zm9.15-9.15H23a1.14,1.14,0,0,0-1.14,1.14v2.29A1.14,1.14,0,0,0,23,26.09h2.29a1.14,1.14,0,0,0,1.14-1.14V22.66A1.14,1.14,0,0,0,25.28,21.52Zm0,9.15H23a1.14,1.14,0,0,0-1.14,1.14v2.29A1.14,1.14,0,0,0,23,35.23h2.29a1.14,1.14,0,0,0,1.14-1.14V31.8A1.14,1.14,0,0,0,25.28,30.66Zm9.15-9.15H32.14A1.14,1.14,0,0,0,31,22.66v2.29a1.14,1.14,0,0,0,1.14,1.14h2.29a1.14,1.14,0,0,0,1.14-1.14V22.66A1.14,1.14,0,0,0,34.43,21.52Zm0,9.15H32.14A1.14,1.14,0,0,0,31,31.8v2.29a1.14,1.14,0,0,0,1.14,1.14h2.29a1.14,1.14,0,0,0,1.14-1.14V31.8A1.14,1.14,0,0,0,34.43,30.66ZM13.85,12.37h2.29a1.14,1.14,0,0,0,1.14-1.14V6.65a1.14,1.14,0,0,0-1.14-1.14H13.85a1.14,1.14,0,0,0-1.14,1.14v4.57A1.14,1.14,0,0,0,13.85,12.37Zm28.58,2.29V37.52a4.57,4.57,0,0,1-4.57,4.57H10.42a4.57,4.57,0,0,1-4.57-4.57V14.66a4.57,4.57,0,0,1,4.57-4.57h1.14v1.14a2.29,2.29,0,0,0,2.29,2.29h2.29a2.29,2.29,0,0,0,2.29-2.29V10.08H29.86v1.14a2.29,2.29,0,0,0,2.29,2.29h2.29a2.29,2.29,0,0,0,2.29-2.29V10.08h1.14A4.57,4.57,0,0,1,42.43,14.66Zm-2.29,4.57a2.29,2.29,0,0,0-2.29-2.29H10.42a2.29,2.29,0,0,0-2.29,2.29V37.52a2.29,2.29,0,0,0,2.29,2.29H37.86a2.29,2.29,0,0,0,2.29-2.29Zm-8-6.86h2.29a1.14,1.14,0,0,0,1.14-1.14V6.65a1.14,1.14,0,0,0-1.14-1.14H32.14A1.14,1.14,0,0,0,31,6.65v4.57A1.14,1.14,0,0,0,32.14,12.37Z" transform="translate(-5.85 -5.51)"/></svg>