<svg id="Capa_1" data-name="Capa 1" xmlns="http://www.w3.org/2000/svg" viewBox="0 0 49.52 49.52"><defs><style>.cls-1{fill:#e49033;}.cls-1,.cls-2{stroke:#e49033;stroke-miterlimit:10;}.cls-2{fill:none;stroke-width:3px;}</style></defs><title>COM_Close_Icon</title><path class="cls-1" d="M48.4,36.17a1.07,1.07,0,0,0-1.51,0L40.11,43l-6.78-6.78a1.07,1.07,0,1,0-1.51,1.51l6.78,6.78-6.78,6.78a1.07,1.07,0,0,0,.75,1.83,1,1,0,0,0,.75-.32L40.1,46l6.78,6.78a1.08,1.08,0,0,0,.75.32,1,1,0,0,0,.75-.32,1.07,1.07,0,0,0,0-1.51l-6.77-6.78,6.78-6.78A1.07,1.07,0,0,0,48.4,36.17Z" transform="translate(-15.35 -19.71)"/><circle class="cls-2" cx="24.76" cy="24.76" r="23.26"/></svg>