<?xml version="1.0" encoding="UTF-8" standalone="no"?>
<svg
   xmlns:dc="http://purl.org/dc/elements/1.1/"
   xmlns:cc="http://creativecommons.org/ns#"
   xmlns:rdf="http://www.w3.org/1999/02/22-rdf-syntax-ns#"
   xmlns:svg="http://www.w3.org/2000/svg"
   xmlns="http://www.w3.org/2000/svg"
   xmlns:sodipodi="http://sodipodi.sourceforge.net/DTD/sodipodi-0.dtd"
   xmlns:inkscape="http://www.inkscape.org/namespaces/inkscape"
   id="Capa_1"
   data-name="Capa 1"
   viewBox="0 0 40.71 30.3"
   version="1.1"
   sodipodi:docname="COM_Menu_Icon.svg"
   inkscape:version="0.92.5 (2060ec1f9f, 2020-04-08)">
  <metadata
     id="metadata110">
    <rdf:RDF>
      <cc:Work
         rdf:about="">
        <dc:format>image/svg+xml</dc:format>
        <dc:type
           rdf:resource="http://purl.org/dc/dcmitype/StillImage" />
      </cc:Work>
    </rdf:RDF>
  </metadata>
  <sodipodi:namedview
     pagecolor="#ffffff"
     bordercolor="#666666"
     borderopacity="1"
     objecttolerance="10"
     gridtolerance="10"
     guidetolerance="10"
     inkscape:pageopacity="0"
     inkscape:pageshadow="2"
     inkscape:window-width="1920"
     inkscape:window-height="1080"
     id="namedview108"
     showgrid="false"
     inkscape:zoom="28.547856"
     inkscape:cx="20.355"
     inkscape:cy="15.15"
     inkscape:window-x="0"
     inkscape:window-y="0"
     inkscape:window-maximized="1"
     inkscape:current-layer="Capa_1" />
  <defs
     id="defs97">
    <style
       id="style95">.cls-1{fill:#ccc;}</style>
  </defs>
  <title
     id="title99">COM_Menu_Icon</title>
  <path
     class="cls-1"
     d="M 9.1729801,0 A 0.9414102,1.18 0 0 0 8.2315699,1.1 0.90949799,1.14 0 0 0 9.1410679,2.28 H 39.768812 a 0.9414102,1.18 0 0 0 0.94141,-1.1 0.90949799,1.14 0 0 0 -0.909498,-1.19 z"
     id="path101"
     inkscape:connector-curvature="0"
     style="fill:#cccccc;stroke-width:0.89319944" />
  <path
     class="cls-1"
     d="m 9.1729801,14 a 0.9414102,1.18 0 0 0 -0.9414102,1.1 0.90949799,1.14 0 0 0 0.909498,1.19 H 39.768812 a 0.9414102,1.18 0 0 0 0.94141,-1.1 A 0.90949799,1.14 0 0 0 39.800724,14 Z"
     id="path103"
     inkscape:connector-curvature="0"
     style="fill:#cccccc;stroke-width:0.89319944" />
  <path
     class="cls-1"
     d="m 9.1729801,28.01 a 0.9414102,1.18 0 0 0 -0.9414102,1.1 0.90949799,1.14 0 0 0 0.909498,1.19 H 39.768812 a 0.9414102,1.18 0 0 0 0.94141,-1.1 0.90949799,1.14 0 0 0 -0.909498,-1.19 z"
     id="path105"
     inkscape:connector-curvature="0"
     style="fill:#cccccc;stroke-width:0.89319944" />
  <path
     class="cls-1"
     d="m 0.14299606,0.02251256 a 0.09467023,1.18 0 0 0 -0.09467023,1.09999994 0.09146107,1.14 0 0 0 0.09146107,1.18 h 3.0799918 a 0.09467023,1.18 0 0 0 0.09467,-1.1 0.09146107,1.14 0 0 0 -0.091461,-1.18999994 z"
     id="path101-3"
     inkscape:connector-curvature="0"
     style="fill:#cccccc;stroke-width:0.28324726" />
  <path
     class="cls-1"
     d="m 0.14299606,14.022513 a 0.09467023,1.18 0 0 0 -0.09467023,1.1 0.09146107,1.14 0 0 0 0.09146107,1.19 h 3.0799918 a 0.09467023,1.18 0 0 0 0.09467,-1.1 0.09146107,1.14 0 0 0 -0.091461,-1.19 z"
     id="path103-6"
     inkscape:connector-curvature="0"
     style="fill:#cccccc;stroke-width:0.28324726" />
  <path
     class="cls-1"
     d="m 0.14299606,28.032513 a 0.09467023,1.18 0 0 0 -0.09467023,1.1 0.09146107,1.14 0 0 0 0.09146107,1.19 h 3.0799918 a 0.09467023,1.18 0 0 0 0.09467,-1.1 0.09146107,1.14 0 0 0 -0.091461,-1.19 z"
     id="path105-7"
     inkscape:connector-curvature="0"
     style="fill:#cccccc;stroke-width:0.28324726" />
</svg>
