<?xml version="1.0" standalone="no"?>
<!DOCTYPE svg PUBLIC "-//W3C//DTD SVG 20010904//EN"
 "http://www.w3.org/TR/2001/REC-SVG-20010904/DTD/svg10.dtd">
<svg version="1.0" xmlns="http://www.w3.org/2000/svg"
 width="1154.000000pt" height="652.000000pt" viewBox="0 0 1154.000000 652.000000"
 preserveAspectRatio="xMidYMid meet">

<g transform="translate(0.000000,652.000000) scale(0.100000,-0.100000)"
fill="#E5B355" stroke="#E5B355">
<path d="M9125 6440 c-341 -69 -773 -224 -2450 -880 -143 -56 -361 -141 -485
-190 -943 -368 -2014 -795 -2365 -940 -427 -178 -555 -245 -555 -290 0 -12 9
-39 20 -60 15 -30 27 -40 44 -40 66 0 1147 405 2711 1015 1955 763 2802 1079
2998 1119 251 52 619 18 921 -86 1045 -357 1550 -1512 1102 -2518 -123 -276
-319 -531 -553 -720 -156 -126 -377 -226 -1438 -650 -545 -217 -592 -236
-1750 -693 -1821 -719 -2405 -961 -2527 -1045 -44 -30 -48 -37 -48 -73 0 -48
35 -89 75 -89 122 0 621 186 2770 1032 2564 1010 2929 1170 3169 1389 358 325
584 721 683 1192 26 125 28 146 28 392 0 279 -9 355 -61 555 -125 473 -393
876 -776 1165 -116 88 -203 140 -363 216 -136 65 -376 149 -510 178 -204 45
-479 54 -640 21z"/>
<path d="M7040 6374 c-71 -40 -80 -52 -80 -102 0 -70 19 -119 62 -157 32 -29
46 -35 85 -35 57 0 123 30 158 72 24 28 26 37 20 82 -20 146 -127 207 -245
140z"/>
<path d="M9160 5913 c-146 -16 -318 -59 -439 -112 -256 -111 -540 -359 -706
-615 -164 -252 -257 -563 -257 -851 1 -378 157 -789 410 -1080 340 -392 876
-589 1403 -515 274 38 575 171 795 351 391 319 592 751 579 1244 -8 327 -95
617 -263 875 -227 352 -555 576 -977 669 -161 35 -396 50 -545 34z m328 -253
c584 -63 1061 -495 1183 -1073 30 -141 31 -370 1 -508 -81 -372 -274 -673
-551 -854 -113 -74 -270 -152 -381 -189 -236 -78 -484 -79 -727 -5 -174 54
-424 180 -523 265 -125 107 -265 291 -340 450 -260 543 -141 1149 307 1574
212 201 564 340 886 349 26 0 91 -4 145 -9z"/>
<path d="M4368 5707 c-34 -31 -56 -74 -64 -125 -10 -61 2 -104 40 -148 32 -37
36 -39 92 -38 64 0 127 26 170 69 33 33 34 118 1 166 -58 87 -184 127 -239 76z"/>
<path d="M5395 5636 c-61 -27 -105 -101 -107 -181 -1 -76 51 -127 142 -140 83
-11 169 41 185 114 14 66 -34 160 -100 198 -45 26 -77 28 -120 9z"/>
<path d="M3424 4890 c-38 -15 -82 -77 -94 -133 -11 -48 -10 -58 8 -99 24 -55
57 -79 117 -86 60 -6 125 19 166 65 28 33 31 41 27 89 -5 62 -42 125 -91 154
-33 21 -96 25 -133 10z"/>
<path d="M6570 4426 c-636 -221 -3366 -1285 -3825 -1490 -314 -141 -353 -163
-369 -209 -13 -36 1 -74 37 -100 25 -20 31 -20 90 -8 142 28 642 211 1522 556
1422 557 2244 888 2635 1060 146 64 150 67 150 117 0 44 -29 102 -60 118 -24
13 -2 18 -180 -44z"/>
<path d="M2870 4053 c-98 -17 -308 -109 -340 -150 -28 -36 -26 -95 4 -130 22
-26 30 -28 88 -27 69 1 154 27 263 79 113 54 139 90 116 166 -15 51 -64 74
-131 62z"/>
<path d="M1646 3997 c-44 -11 -110 -73 -120 -113 -9 -35 38 -137 81 -174 55
-49 135 -37 201 31 59 60 65 141 15 200 -46 54 -107 73 -177 56z"/>
<path d="M6862 3368 c-39 -28 -82 -109 -82 -157 0 -76 54 -138 128 -148 83
-11 202 72 202 141 0 48 -46 133 -88 161 -48 33 -115 34 -160 3z"/>
<path d="M5875 3067 c-166 -49 -490 -171 -1230 -460 -945 -370 -1283 -514
-1363 -582 -25 -21 -32 -35 -32 -64 0 -40 19 -75 51 -91 58 -32 297 50 1365
468 1055 413 1343 536 1414 602 43 40 43 98 -1 134 -40 34 -68 33 -204 -7z"/>
<path d="M7160 2524 c-149 -50 -280 -114 -313 -153 -41 -49 -35 -102 16 -158
30 -33 103 -31 218 8 192 64 326 141 356 203 21 46 11 80 -34 111 -53 36 -113
33 -243 -11z"/>
<path d="M1535 2290 c-59 -15 -83 -29 -111 -65 -41 -54 -39 -115 7 -190 43
-72 56 -79 122 -66 73 13 98 25 131 60 42 44 47 110 12 178 -42 84 -81 104
-161 83z"/>
<path d="M143 2258 c-43 -14 -93 -68 -103 -112 -10 -47 2 -92 43 -153 l32 -48
61 1 c146 2 226 113 165 232 -34 67 -68 92 -120 91 -25 -1 -60 -6 -78 -11z"/>
<path d="M6364 2185 c-160 -42 -644 -223 -1549 -577 -1172 -459 -1898 -759
-1973 -816 -52 -40 -31 -183 29 -190 36 -4 234 68 1204 440 1538 589 2375 934
2458 1013 40 38 38 94 -4 129 -37 32 -49 32 -165 1z"/>
<path d="M2840 1874 c-198 -52 -813 -286 -1018 -387 -57 -28 -112 -62 -123
-75 -30 -38 -25 -97 9 -132 61 -61 103 -53 492 92 395 148 731 289 762 320 32
32 16 131 -27 174 -28 28 -23 27 -95 8z"/>
<path d="M9143 1669 c-96 -18 -153 -73 -153 -147 0 -60 26 -103 82 -135 59
-35 126 -44 167 -23 90 47 102 179 23 265 -42 46 -61 52 -119 40z"/>
<path d="M6135 466 c-42 -19 -92 -78 -105 -126 -31 -116 78 -215 198 -179 73
22 122 84 122 156 0 98 -129 188 -215 149z"/>
<path d="M604 344 c-93 -46 -117 -156 -52 -239 47 -60 154 -82 215 -45 71 43
106 178 62 234 -47 60 -156 84 -225 50z"/>
<path d="M3638 351 c-109 -35 -162 -149 -108 -235 44 -72 167 -104 227 -60 70
52 98 180 52 238 -37 48 -116 74 -171 57z"/>
<path d="M7168 349 c-62 -9 -102 -39 -122 -91 -15 -35 -15 -49 -5 -91 15 -62
73 -127 115 -128 82 -3 122 10 160 53 118 129 29 284 -148 257z"/>
</g>
</svg>
