<svg id="Capa_1" data-name="Capa 1" xmlns="http://www.w3.org/2000/svg" viewBox="0 0 57 57"><defs><style>.cls-1{fill:#474747;}.cls-2{fill:none;stroke:#474747;stroke-miterlimit:10;stroke-width:2px;}</style></defs><title>COM_Edit_Icon</title><path class="cls-1" d="M54.53,31a6.62,6.62,0,0,0-9.37,0L28,48.19a.86.86,0,0,0-.24.49L26.48,58.1a.86.86,0,0,0,.24.72.87.87,0,0,0,.61.26h.12l5.68-.77a.86.86,0,0,0-.23-1.71l-4.55.61.89-6.57,6.92,6.92a.87.87,0,0,0,.61.26.85.85,0,0,0,.61-.26L54.53,40.39a6.61,6.61,0,0,0,0-9.37Zm-9,2.11L48.38,36,32.71,51.69,29.83,48.8ZM36.76,55.73l-2.82-2.82L49.61,37.24l2.82,2.82Zm16.87-16.9-6.9-6.9a4.9,4.9,0,0,1,6.9,6.9Z" transform="translate(-12 -16)"/><circle class="cls-2" cx="28.5" cy="28.5" r="27.5"/></svg>