<?xml version="1.0" encoding="UTF-8"?>
<svg version="1.1" viewBox="0 0 1128 1196" width="1280" height="1280" xmlns="http://www.w3.org/2000/svg">
<path transform="translate(657,64)" d="m0 0 3 1 9 16 16 27 30 52 14 24 15 26 16 28 15 26 10 17 90 156 14 24 15 26 16 28 60 104 12 21 30 52 14 24 13 23 14 24 60 104 3 5-1 1h-862l2-2 54-9 73-13 333-59 57-10h6l-4-7-13-15-9-11-12-14-11-13-9-11-12-14-9-11-12-14-9-11-12-14-9-11-12-14-9-11-12-14-8-10-12-14-9-11-12-14-9-11-12-14-9-11-11-13-9-11-11-13-9-11-6-7 1-7 19-53 21-58 20-55 18-50 16-44 23-63 20-55z" fill="#0089D6"/>
<path transform="translate(619,1)" d="m0 0 1 3-13 28-15 32-7 16-7 14-12 26-9 20-7 15-12 25-32 69-17 36-12 26-15 32-26 56-15 33-7 14-13 28-8 18-7 14-12 26-14 30-19 41-16 34-12 26-15 32-13 28-15 32-9 20-2 2h-258l2-5 8-13 11-19 12-21 14-24 13-23 14-24 16-28 15-26 8-14 14-24 14-25 14-24 60-104 12-21 14-24 15-26 16-28 11-19 9-10 11-9 14-12 11-9 14-12 11-9 14-12 11-9 14-12 13-11 11-9 26-22 11-9 14-12 11-9 14-12 11-9 13-11 11-9 14-12 11-9 26-22 11-9 13-11 11-9z" fill="#0089D6"/>
<path transform="translate(120,869)" d="m0 0h39l4 8 14 37 35 91 18 47 22 57 18 47 11 28v2h-41l-6-14-13-35-14-38v-2l-134 1-9 25-16 45-6 17-1 1h-41v-6h2l3-9 16-42 17-45 16-42 20-53 13-34 19-50 13-34zm19 39-2 6-4 15-12 34-20 55-16 43v2l6 1h102l1-3-21-57-18-49-8-22-5-17-2-8z" fill="#0089D6"/>
<path transform="translate(1023,953)" d="m0 0h16l14 2 15 5 16 9 12 11 7 8 9 16 5 15v62l-1 1-154 1 2 18 5 17 6 12 7 9 2 4 4 2 11 7 11 5 15 3h20l18-3 15-5 16-8 10-7 3 1-1 32-9 6-15 7-20 6-13 2h-40l-14-3-13-5-14-8-11-9-10-11-8-13-7-16-5-19-2-14-1-25 2-19 5-20 8-19 8-14 9-11 9-9 11-8 15-8 16-5zm-4 32-12 3-12 6-10 8-10 13-8 16-5 16v4h123l-1-14-4-16-8-16-6-7-10-7-12-5-6-1z" fill="#0089D6"/>
<path transform="translate(523,959)" d="m0 0 36 1 1 144 3 17 5 14 6 9 7 7 14 7 9 2h19l14-4 12-7 8-8 8-12 6-16 1-5 1-62v-83l1-3 37 1v224l-1 1h-36v-33l-4 4-6 8-6 7-12 9-12 6-15 4-10 1h-10l-18-2-16-5-10-6-10-9-6-7-7-12-6-18-3-18-1-61v-94z" fill="#0089D6"/>
<path transform="translate(307,959)" d="m0 0h163l12 1-1 8-4 8-12 17-14 19-13 18-12 17-11 15-39 54-12 17-14 19-2 3h131v31h-185l-1-8 3-7 13-18 11-15 26-36 14-19 10-14 13-18 14-19 12-17 14-19 4-6-10 1h-110l-1-1v-30z" fill="#0089D6"/>
<path transform="translate(872,955)" d="m0 0h17l12 2 1 2v36l-5-1-8-3-4-1h-18l-10 3-10 6-4 2-2 4-7 10-8 18-3 11-1 6-1 24-1 112h-36l-1-58v-168l1-1h35l1 1 1 43 8-16 8-11 4-5 13-10 13-5z" fill="#0089D6"/>
</svg>
