<?xml version="1.0" encoding="iso-8859-1"?>
<!-- Generator: Adobe Illustrator 19.0.0, SVG Export Plug-In . SVG Version: 6.00 Build 0)  -->
<svg version="1.1" id="Capa_1" xmlns="http://www.w3.org/2000/svg" xmlns:xlink="http://www.w3.org/1999/xlink" x="0px" y="0px"
	 viewBox="0 0 469.333 469.333" style="enable-background:new 0 0 469.333 469.333;" xml:space="preserve">
<g>
	<g>
		<path style="fill:white;" d="M412.917,338.177C400.708,319.958,384,295.01,384,224v-32c0-67.512-45.066-124.63-106.667-143.043v-6.29
			C277.333,19.135,258.188,0,234.667,0S192,19.135,192,42.667v6.29C130.401,67.37,85.333,124.488,85.333,192v32
			c0,71.01-16.708,95.958-28.917,114.177c-7.063,10.552-13.75,20.521-13.75,35.156c0,34.775,72.495,46.978,131.271,51.181
			c8.241,26.383,32.432,44.819,60.729,44.819s52.488-18.436,60.729-44.819c58.776-4.203,131.271-16.406,131.271-51.181
			C426.667,358.698,419.979,348.729,412.917,338.177z M256,44.371c-6.987-1.006-14.072-1.704-21.333-1.704
			s-14.346,0.698-21.333,1.704v-1.704c0-11.76,9.563-21.333,21.333-21.333S256,30.906,256,42.667V44.371z" />
	</g>
</g>
</svg>
