<?xml version="1.0" encoding="UTF-8"?>
<svg version="1.1" xmlns="http://www.w3.org/2000/svg" width="96" height="96">
<path d="M0 0 C0.9477832 -0.01260864 1.89556641 -0.02521729 2.87207031 -0.03820801 C4.39719238 -0.02606262 4.39719238 -0.02606262 5.953125 -0.01367188 C7.00338867 -0.01749878 8.05365234 -0.02132568 9.13574219 -0.02526855 C11.35482747 -0.02798883 13.57394474 -0.02061964 15.79296875 -0.00390625 C19.19083095 0.01750067 22.58657861 -0.00370513 25.984375 -0.02929688 C28.14062967 -0.02665362 30.29688302 -0.02152869 32.453125 -0.01367188 C33.46987305 -0.0217688 34.48662109 -0.02986572 35.53417969 -0.03820801 C42.51854041 0.05470703 42.51854041 0.05470703 45.85058594 2.30761719 C47.90549448 5.66520421 47.62771271 8.96693808 47.453125 12.76757812 C47.43507812 13.51265625 47.41703125 14.25773437 47.3984375 15.02539062 C47.35148149 16.85667514 47.27974152 18.68729461 47.203125 20.51757812 C47.78803711 20.49663086 48.37294922 20.47568359 48.97558594 20.45410156 C51.63458965 20.37077697 54.29331855 20.31886916 56.953125 20.26757812 C58.33371094 20.21730469 58.33371094 20.21730469 59.7421875 20.16601562 C60.63164063 20.153125 61.52109375 20.14023437 62.4375 20.12695312 C63.25444336 20.10600586 64.07138672 20.08505859 64.91308594 20.06347656 C68.09129837 20.69369779 69.1674463 22.03585328 71.203125 24.51757812 C71.68414307 26.97271729 71.68414307 26.97271729 71.65722656 29.74511719 C71.65692444 30.78589417 71.65662231 31.82667114 71.65631104 32.89898682 C71.63566589 34.0157782 71.61502075 35.13256958 71.59375 36.28320312 C71.58809021 37.43173767 71.58243042 38.58027222 71.57659912 39.76361084 C71.55420831 43.43202387 71.50400442 47.09946029 71.453125 50.76757812 C71.43306361 53.25454319 71.41481222 55.74152356 71.3984375 58.22851562 C71.35433455 64.32520301 71.28739449 70.4213208 71.203125 76.51757812 C70.13825645 75.62456156 69.07637459 74.72798342 68.015625 73.83007812 C67.3696788 73.28665268 66.7237326 72.74322723 66.05821228 72.18333435 C64.203125 70.51757813 64.203125 70.51757813 61.83422852 67.67797852 C58.02654245 64.55148561 54.89087963 64.85689977 50.10546875 64.95117188 C49.23418839 64.94553726 48.36290802 64.93990265 47.46522522 64.93409729 C44.68980751 64.91767029 41.915987 64.93317561 39.140625 64.95507812 C36.36184385 64.97167433 33.58411035 64.98077303 30.80531311 64.96534729 C29.07910332 64.95606912 27.35267201 64.96522644 25.62669373 64.99497986 C21.82874043 64.97764495 19.83671388 64.96329238 16.66723633 62.73364258 C14.46309818 59.39748083 14.77641917 56.11432803 14.953125 52.26757812 C14.97117187 51.5225 14.98921875 50.77742188 15.0078125 50.00976562 C15.05476851 48.17848111 15.12650848 46.34786164 15.203125 44.51757812 C10.50838068 44.16526747 5.60127912 43.86140227 1.57128906 46.64453125 C-1.85568194 49.65823117 -4.79096548 53.09433783 -7.796875 56.51757812 C-8.126875 56.51757812 -8.456875 56.51757812 -8.796875 56.51757812 C-8.89822962 49.18534134 -8.96832149 41.85328495 -9.01660156 34.52050781 C-9.03672664 32.02564747 -9.06402952 29.53083435 -9.09863281 27.03613281 C-9.14710957 23.45170444 -9.1698352 19.86789928 -9.1875 16.28320312 C-9.20814514 15.16641174 -9.22879028 14.04962036 -9.25006104 12.89898682 C-9.25036316 11.85820984 -9.25066528 10.81743286 -9.25097656 9.74511719 C-9.25985901 8.83022522 -9.26874146 7.91533325 -9.27789307 6.97271729 C-8.26508151 1.8032788 -4.98801695 0.01908433 0 0 Z M-0.796875 8.51757812 C-0.796875 17.75757813 -0.796875 26.99757813 -0.796875 36.51757812 C12.403125 36.51757812 25.603125 36.51757812 39.203125 36.51757812 C39.203125 27.27757812 39.203125 18.03757812 39.203125 8.51757812 C26.003125 8.51757812 12.803125 8.51757812 -0.796875 8.51757812 Z M47.203125 28.51757812 C47.1 30.43570313 46.996875 32.35382812 46.890625 34.33007812 C46.58530629 40.00900618 46.58530629 40.00900618 44.96289062 42.16796875 C42.71591413 43.89123263 41.34787315 43.9397199 38.53515625 44.02929688 C37.64248047 44.06474609 36.74980469 44.10019531 35.83007812 44.13671875 C34.90130859 44.15927734 33.97253906 44.18183594 33.015625 44.20507812 C31.60506836 44.25631836 31.60506836 44.25631836 30.16601562 44.30859375 C27.8454714 44.39104964 25.52431683 44.45599115 23.203125 44.51757812 C23.203125 48.47757813 23.203125 52.43757813 23.203125 56.51757812 C36.403125 56.51757812 49.603125 56.51757812 63.203125 56.51757812 C63.203125 47.27757812 63.203125 38.03757812 63.203125 28.51757812 C57.923125 28.51757812 52.643125 28.51757812 47.203125 28.51757812 Z " fill="#FFFFFF" transform="translate(16.796875,11.482421875)"/>
</svg>
