<?xml version="1.0" encoding="utf-8"?>
<!-- Generator: Adobe Illustrator 21.0.2, SVG Export Plug-In . SVG Version: 6.00 Build 0)  -->
<svg version="1.1" id="Capa_1" xmlns="http://www.w3.org/2000/svg" xmlns:xlink="http://www.w3.org/1999/xlink" x="0px" y="0px"
	 viewBox="0 0 32 32" style="enable-background:new 0 0 32 32;" xml:space="preserve">
<style type="text/css">
	.st0{fill:#010002;}
</style>
<g>
	<g id="calendar_1_">
		<path class="st0" d="M29.3,3H25V1c0-0.6-0.4-1-1-1s-1,0.4-1,1v2h-6V1c0-0.6-0.4-1-1-1s-1,0.4-1,1v2H9V1c0-0.6-0.4-1-1-1S7,0.4,7,1
			v2H2.7C1.2,3,0,4.2,0,5.7v23.7C0,30.8,1.2,32,2.7,32h26.7c1.5,0,2.7-1.2,2.7-2.7V5.7C32,4.2,30.8,3,29.3,3z M30,29.3
			c0,0.4-0.3,0.7-0.7,0.7H2.7C2.3,30,2,29.7,2,29.3V5.7C2,5.3,2.3,5,2.7,5H7v2c0,0.6,0.4,1,1,1s1-0.4,1-1V5h6v2c0,0.6,0.4,1,1,1
			s1-0.4,1-1V5h6v2c0,0.6,0.4,1,1,1s1-0.4,1-1V5h4.3C29.7,5,30,5.3,30,5.7V29.3z"/>
		<rect x="7" y="12" class="st0" width="4" height="3"/>
		<rect x="7" y="17" class="st0" width="4" height="3"/>
		<rect x="7" y="22" class="st0" width="4" height="3"/>
		<rect x="14" y="22" class="st0" width="4" height="3"/>
		<rect x="14" y="17" class="st0" width="4" height="3"/>
		<rect x="14" y="12" class="st0" width="4" height="3"/>
		<rect x="21" y="22" class="st0" width="4" height="3"/>
		<rect x="21" y="17" class="st0" width="4" height="3"/>
		<rect x="21" y="12" class="st0" width="4" height="3"/>
	</g>
</g>
</svg>
