<?xml version="1.0" encoding="UTF-8"?>
<!DOCTYPE svg PUBLIC "-//W3C//DTD SVG 1.1//EN" "http://www.w3.org/Graphics/SVG/1.1/DTD/svg11.dtd">
<svg xmlns="http://www.w3.org/2000/svg" version="1.1" width="512px" height="512px" style="shape-rendering:geometricPrecision; text-rendering:geometricPrecision; image-rendering:optimizeQuality; fill-rule:evenodd; clip-rule:evenodd" xmlns:xlink="http://www.w3.org/1999/xlink">
<g><path style="opacity:0.996" fill="#efefef" d="M 212.5,-0.5 C 241.167,-0.5 269.833,-0.5 298.5,-0.5C 381.563,15.7683 443.729,60.7683 485,134.5C 497.562,159.354 506.395,185.354 511.5,212.5C 511.5,241.167 511.5,269.833 511.5,298.5C 495.232,381.563 450.232,443.729 376.5,485C 351.646,497.562 325.646,506.395 298.5,511.5C 269.833,511.5 241.167,511.5 212.5,511.5C 129.437,495.232 67.2706,450.232 26,376.5C 13.4383,351.646 4.60497,325.646 -0.5,298.5C -0.5,269.833 -0.5,241.167 -0.5,212.5C 15.7683,129.437 60.7683,67.2706 134.5,26C 159.354,13.4383 185.354,4.60497 212.5,-0.5 Z"/></g>
<g><path style="opacity:1" fill="#016941" d="M 282.5,104.5 C 283.5,104.5 284.5,104.5 285.5,104.5C 285.5,205.167 285.5,305.833 285.5,406.5C 284.5,406.5 283.5,406.5 282.5,406.5C 221.146,395.926 159.813,385.259 98.5,374.5C 97.1667,295.167 97.1667,215.833 98.5,136.5C 159.813,125.741 221.146,115.074 282.5,104.5 Z"/></g>
<g><path style="opacity:1" fill="#63a088" d="M 282.5,104.5 C 283.568,103.566 284.901,103.232 286.5,103.5C 286.5,204.833 286.5,306.167 286.5,407.5C 284.901,407.768 283.568,407.434 282.5,406.5C 283.5,406.5 284.5,406.5 285.5,406.5C 285.5,305.833 285.5,205.167 285.5,104.5C 284.5,104.5 283.5,104.5 282.5,104.5 Z"/></g>
<g><path style="opacity:1" fill="#4f957b" d="M 98.5,136.5 C 97.1667,215.833 97.1667,295.167 98.5,374.5C 97.1668,335.172 96.5001,295.506 96.5,255.5C 96.5001,215.494 97.1668,175.828 98.5,136.5 Z"/></g>
<g><path style="opacity:1" fill="#046a42" d="M 295.5,137.5 C 334.833,137.5 374.167,137.5 413.5,137.5C 413.5,216.167 413.5,294.833 413.5,373.5C 374.167,373.5 334.833,373.5 295.5,373.5C 295.5,365.833 295.5,358.167 295.5,350.5C 305.5,350.5 315.5,350.5 325.5,350.5C 325.828,339.321 325.495,328.321 324.5,317.5C 314.833,317.5 305.167,317.5 295.5,317.5C 295.5,310.833 295.5,304.167 295.5,297.5C 305.5,297.5 315.5,297.5 325.5,297.5C 325.5,286.833 325.5,276.167 325.5,265.5C 315.5,265.5 305.5,265.5 295.5,265.5C 295.5,258.833 295.5,252.167 295.5,245.5C 305.5,245.5 315.5,245.5 325.5,245.5C 325.5,234.833 325.5,224.167 325.5,213.5C 315.5,213.5 305.5,213.5 295.5,213.5C 295.5,206.833 295.5,200.167 295.5,193.5C 305.167,193.5 314.833,193.5 324.5,193.5C 325.495,182.679 325.828,171.679 325.5,160.5C 315.5,160.5 305.5,160.5 295.5,160.5C 295.5,152.833 295.5,145.167 295.5,137.5 Z"/></g>
<g><path style="opacity:1" fill="#5c9c84" d="M 295.5,137.5 C 334.996,136.501 374.663,136.168 414.5,136.5C 414.5,215.833 414.5,295.167 414.5,374.5C 374.663,374.832 334.996,374.499 295.5,373.5C 334.833,373.5 374.167,373.5 413.5,373.5C 413.5,294.833 413.5,216.167 413.5,137.5C 374.167,137.5 334.833,137.5 295.5,137.5 Z"/></g>
<g><path style="opacity:1" fill="#fefffe" d="M 295.5,161.5 C 305.167,161.5 314.833,161.5 324.5,161.5C 324.5,172.167 324.5,182.833 324.5,193.5C 314.833,193.5 305.167,193.5 295.5,193.5C 295.5,182.833 295.5,172.167 295.5,161.5 Z"/></g>
<g><path style="opacity:1" fill="#9dc5b5" d="M 295.5,161.5 C 295.5,161.167 295.5,160.833 295.5,160.5C 305.5,160.5 315.5,160.5 325.5,160.5C 325.828,171.679 325.495,182.679 324.5,193.5C 324.5,182.833 324.5,172.167 324.5,161.5C 314.833,161.5 305.167,161.5 295.5,161.5 Z"/></g>
<g><path style="opacity:1" fill="#fefffe" d="M 340.5,161.5 C 357.833,161.5 375.167,161.5 392.5,161.5C 392.5,172.167 392.5,182.833 392.5,193.5C 375.167,193.5 357.833,193.5 340.5,193.5C 340.5,182.833 340.5,172.167 340.5,161.5 Z"/></g>
<g><path style="opacity:1" fill="#84b6a3" d="M 171.5,207.5 C 164.313,207.175 157.313,207.509 150.5,208.5C 149.957,208.44 149.624,208.107 149.5,207.5C 156.99,206.181 164.323,206.181 171.5,207.5 Z"/></g>
<g><path style="opacity:1" fill="#83b6a2" d="M 203.5,207.5 C 210.677,206.181 218.01,206.181 225.5,207.5C 225.376,208.107 225.043,208.44 224.5,208.5C 217.687,207.509 210.687,207.175 203.5,207.5 Z"/></g>
<g><path style="opacity:1" fill="#fbfcfc" d="M 171.5,207.5 C 176.821,216.806 182.155,226.139 187.5,235.5C 192.845,226.139 198.179,216.806 203.5,207.5C 210.687,207.175 217.687,207.509 224.5,208.5C 215.712,223.908 207.045,239.408 198.5,255C 208.033,272.564 217.699,290.064 227.5,307.5C 220.524,308.664 213.524,308.831 206.5,308C 200.331,297.015 193.997,286.181 187.5,275.5C 181.181,286.131 174.848,296.798 168.5,307.5C 161.532,308.497 154.532,308.83 147.5,308.5C 156.88,290.591 166.547,272.758 176.5,255C 167.955,239.408 159.288,223.908 150.5,208.5C 157.313,207.509 164.313,207.175 171.5,207.5 Z"/></g>
<g><path style="opacity:1" fill="#fcfdfd" d="M 295.5,213.5 C 305.5,213.5 315.5,213.5 325.5,213.5C 325.5,224.167 325.5,234.833 325.5,245.5C 315.5,245.5 305.5,245.5 295.5,245.5C 295.5,234.833 295.5,224.167 295.5,213.5 Z"/></g>
<g><path style="opacity:1" fill="#fefffe" d="M 340.5,213.5 C 357.833,213.5 375.167,213.5 392.5,213.5C 392.5,224.167 392.5,234.833 392.5,245.5C 375.167,245.5 357.833,245.5 340.5,245.5C 340.5,234.833 340.5,224.167 340.5,213.5 Z"/></g>
<g><path style="opacity:1" fill="#fcfdfd" d="M 295.5,265.5 C 305.5,265.5 315.5,265.5 325.5,265.5C 325.5,276.167 325.5,286.833 325.5,297.5C 315.5,297.5 305.5,297.5 295.5,297.5C 295.5,286.833 295.5,276.167 295.5,265.5 Z"/></g>
<g><path style="opacity:1" fill="#fefffe" d="M 340.5,265.5 C 357.833,265.5 375.167,265.5 392.5,265.5C 392.5,276.167 392.5,286.833 392.5,297.5C 375.167,297.5 357.833,297.5 340.5,297.5C 340.5,286.833 340.5,276.167 340.5,265.5 Z"/></g>
<g><path style="opacity:1" fill="#fefffe" d="M 295.5,317.5 C 305.167,317.5 314.833,317.5 324.5,317.5C 324.5,328.167 324.5,338.833 324.5,349.5C 314.833,349.5 305.167,349.5 295.5,349.5C 295.5,338.833 295.5,328.167 295.5,317.5 Z"/></g>
<g><path style="opacity:1" fill="#fefffe" d="M 340.5,317.5 C 357.833,317.5 375.167,317.5 392.5,317.5C 392.5,328.167 392.5,338.833 392.5,349.5C 375.167,349.5 357.833,349.5 340.5,349.5C 340.5,338.833 340.5,328.167 340.5,317.5 Z"/></g>
<g><path style="opacity:1" fill="#89baa7" d="M 324.5,317.5 C 325.495,328.321 325.828,339.321 325.5,350.5C 315.5,350.5 305.5,350.5 295.5,350.5C 295.5,350.167 295.5,349.833 295.5,349.5C 305.167,349.5 314.833,349.5 324.5,349.5C 324.5,338.833 324.5,328.167 324.5,317.5 Z"/></g>
</svg>
