<?xml version="1.0" encoding="iso-8859-1"?>
<!-- Generator: Adobe Illustrator 19.0.0, SVG Export Plug-In . SVG Version: 6.00 Build 0)  -->
<svg version="1.1" id="Capa_1" xmlns="http://www.w3.org/2000/svg" xmlns:xlink="http://www.w3.org/1999/xlink" x="0px" y="0px"
	 viewBox="0 0 512 512" style="enable-background:new 0 0 512 512;" xml:space="preserve">
<path style="fill:#3FA0E1;" d="M256.007,512C114.53,512,0.035,397.503,0.035,256C0.035,114.508,114.52,0,256.007,0
	c141.476,0,255.972,114.497,255.972,256C511.978,397.492,397.494,512,256.007,512z"/>
<path style="fill:#2568BD;" d="M256.007,0v512c141.487,0,255.972-114.508,255.972-256C511.978,114.498,397.483,0,256.007,0z"/>
<path style="fill:#FF9842;" d="M256.007,0.001c-5.378,0-10.727,0.184-16.048,0.511c73.415,25.748,163.669,134.691,172.176,246.086
	c7.541,98.771-50.199,203.193-266.039,240.742C179.998,503.48,217.347,512,256.007,512c141.476,0,255.972-114.497,255.972-256
	C511.978,114.508,397.494,0.001,256.007,0.001z"/>
<path style="fill:#FF8322;" d="M256.007,0v7.332c69.914,34.606,148.232,135.872,156.127,239.265
	c6.054,79.302-29.978,162.246-156.127,211.297V512c141.476,0,255.972-114.497,255.972-256C511.978,114.508,397.494,0,256.007,0z"/>
<g>
	<path style="fill:#FF9842;" d="M102.598,90.058L26.192,4.978C22.04,0.356,15.47-1.229,9.668,0.994S0.035,8.788,0.035,15.001V256
		c0,8.284,6.715,15,14.998,15s14.998-6.716,14.998-15c0-44.546,12.924-87.338,36.933-123.874L102.598,90.058z"/>
	<path style="fill:#FF9842;" d="M157.428,335.558c-3.82-0.601-7.26-2.654-9.603-5.73c-22.578-29.655-34.512-65.398-34.512-103.367
		c0-13.089,15.679-19.905,25.247-10.952c25.509,23.876,47.056,20.416,74.335,16.036c32.381-5.199,72.682-11.672,115.757,38.212
		c8.39,9.713,9.412,23.547,2.543,34.423c-6.868,10.874-19.797,15.89-32.171,12.484c-29.967-8.242-43.709-1.818-61.099,6.318
		C219.94,331.394,197.547,341.868,157.428,335.558z"/>
</g>
<path style="fill:#FFD664;" d="M501.76,184.034c-47.3,273.425-348.299,221.884-358.202,51.019l82.048-46.578
	c4.694-2.665,7.594-7.647,7.594-13.045v-22.359c0-5.827-3.375-11.127-8.655-13.592l-60.857-28.412V15.001
	c0-6.214-3.831-11.784-9.633-14.007c-5.803-2.224-12.374-0.638-16.525,3.985L70.763,79.336
	c-95.439,100.067-94.644,258.782,4.245,357.683c47.042,47.046,111.081,74.98,180.999,74.98c67.785,0,132.389-26.364,180.999-74.98
	C506.039,367.978,526.852,270.187,501.76,184.034z"/>
<path style="fill:#FF8322;" d="M328.651,269.756c-25.549-29.587-50.121-39.348-72.644-41.309v87.084
	c11.149-3.398,23.716-4.177,43.016,1.131c12.375,3.406,25.303-1.61,32.171-12.484C338.063,293.303,337.041,279.469,328.651,269.756z
	"/>
<path style="fill:#FF9842;" d="M501.76,184.034c-28.817,166.581-151.8,212.543-245.753,184.39v143.575
	c67.785,0,132.389-26.364,180.999-74.98C506.039,367.978,526.852,270.187,501.76,184.034z"/>
</svg>
