<svg id="Layer_1" data-name="Layer 1" xmlns="http://www.w3.org/2000/svg" viewBox="0 0 641.53 582.78"><defs><style>.cls-1{fill:#311b65;}</style></defs><path class="cls-1" d="M937.77,763.28,1082.62,748a29,29,0,0,1-1.73-9.53,28.35,28.35,0,0,1,.37-3.59L936.4,750.17a28.68,28.68,0,0,1,1.73,9.52A28.34,28.34,0,0,1,937.77,763.28Z" transform="translate(-685.86 -561.72)"/><path class="cls-1" d="M909.65,1082.34l-174.07,28.39a29.07,29.07,0,0,1,2.22,11.09c0,.67-.16,1.29-.2,1.94l174.07-28.39a29.12,29.12,0,0,1-2.22-11.1C909.45,1083.61,909.61,1083,909.65,1082.34Z" transform="translate(-685.86 -561.72)"/><path class="cls-1" d="M945.45,1055.86a29,29,0,0,1,11.78,5.93l146.2-294.88a29,29,0,0,1-11.77-5.93Z" transform="translate(-685.86 -561.72)"/><path class="cls-1" d="M900.9,787.71a29.1,29.1,0,0,1-11.55-6.37L716.49,1093.81a29.1,29.1,0,0,1,11.55,6.37Z" transform="translate(-685.86 -561.72)"/><path class="cls-1" d="M1160.15,613.36a29,29,0,0,1-12.5-4.23l-34.5,100.41a29,29,0,0,1,12.48,4.22Z" transform="translate(-685.86 -561.72)"/><path class="cls-1" d="M1277.16,663.53a29.22,29.22,0,0,1,6.9-11.23l-93.37-58.44a29.33,29.33,0,0,1-6.9,11.24Z" transform="translate(-685.86 -561.72)"/><path class="cls-1" d="M1135,723.18a28.91,28.91,0,0,1,4.16,12.52l140.75-47.38a29,29,0,0,1-4.16-12.52Z" transform="translate(-685.86 -561.72)"/><circle class="cls-1" cx="223.01" cy="197.96" r="22.67"/><circle class="cls-1" cx="22.67" cy="560.11" r="22.67"/><circle class="cls-1" cx="252.86" cy="522.54" r="22.67"/><circle class="cls-1" cx="424.3" cy="176.78" r="22.67"/><circle class="cls-1" cx="618.86" cy="111.28" r="22.67"/><circle class="cls-1" cx="477.28" cy="22.67" r="22.67"/></svg>