<?xml version="1.0" encoding="iso-8859-1"?>
<!-- Generator: Adobe Illustrator 19.0.0, SVG Export Plug-In . SVG Version: 6.00 Build 0)  -->
<svg version="1.1" id="Capa_1" xmlns="http://www.w3.org/2000/svg" xmlns:xlink="http://www.w3.org/1999/xlink" x="0px" y="0px"
	 viewBox="0 0 512 512" style="enable-background:new 0 0 512 512;" xml:space="preserve">
<circle style="fill:#0766A0;" cx="256" cy="256" r="256"/>
<path style="fill:#035677;" d="M511.134,234.969L398.26,122.094l-0.07,0.07c-7.844-8.331-16.405-15.978-25.595-22.83
	c0.326,8.281,0.665,17.878,0.956,28.161l-54.54-54.54c0,0-9.014,10.076-21.832,24.92l-37.106-37.106
	c-1.355-0.028-2.712-0.051-4.073-0.051C148.149,60.718,60.718,148.149,60.718,256c0,50.095,18.871,95.776,49.881,130.345l0,0
	l124.366,124.789C241.902,511.699,248.916,512,256,512c141.385,0,256-114.615,256-256C512,248.918,511.7,241.906,511.134,234.969z"
	/>
<g>
	<path style="fill:#FFFFFF;" d="M372.594,99.335c0.398,10.091,0.814,22.12,1.141,34.99c21.947,25.351,35.226,58.413,35.226,94.576
		c0,79.843-64.726,144.569-144.569,144.569s-144.569-64.726-144.569-144.569c0-70.787,50.878-129.683,118.058-142.135
		c8.062-9.591,15.693-18.494,22.191-25.997c-1.355-0.028-2.712-0.051-4.073-0.051c-107.85,0-195.281,87.43-195.281,195.282
		S148.149,451.282,256,451.282S451.282,363.852,451.282,256C451.282,191.854,420.352,134.935,372.594,99.335z"/>
	<path style="fill:#FFFFFF;" d="M211.497,211.733c-9.482,29.213,6.513,60.581,35.726,70.063c5.706,1.852,11.489,2.731,17.18,2.731
		c23.447,0,45.253-14.95,52.883-38.457c9.482-29.213,1.725-173.113,1.725-173.113S220.979,182.52,211.497,211.733z"/>
</g>
</svg>
