<?xml version="1.0" standalone="no"?>
<!DOCTYPE svg PUBLIC "-//W3C//DTD SVG 20010904//EN"
 "http://www.w3.org/TR/2001/REC-SVG-20010904/DTD/svg10.dtd">
<svg version="1.0" xmlns="http://www.w3.org/2000/svg"
 width="275.000000pt" height="503.000000pt" viewBox="0 0 275.000000 503.000000"
 preserveAspectRatio="xMidYMid meet">

<g transform="translate(0.000000,503.000000) scale(0.100000,-0.100000)"
fill="#000000" stroke="none">
<path d="M248 5002 c-69 -25 -134 -75 -169 -129 -64 -101 -59 69 -57 -2379 l3
-2229 33 -67 c36 -73 86 -123 161 -160 l46 -23 1105 0 1105 0 46 23 c75 37
125 87 161 160 l33 67 0 2250 0 2250 -33 67 c-36 73 -86 123 -161 160 l-46 23
-1090 2 c-1009 2 -1094 1 -1137 -15z m784 -207 c8 -19 8 -28 -2 -40 -23 -28
-70 -12 -70 25 0 42 54 54 72 15z m606 6 c8 -5 12 -17 10 -27 -3 -18 -18 -19
-274 -22 -232 -2 -273 0 -284 13 -10 12 -10 18 0 30 10 13 54 15 274 15 143 0
267 -4 274 -9z m982 -2206 l0 -2025 -1250 0 -1250 0 0 2025 0 2025 1250 0
1250 0 0 -2025z m-1013 -2277 c13 -12 23 -29 23 -37 -1 -12 -3 -11 -12 4 -23
43 -33 45 -255 45 -205 0 -213 -1 -233 -22 -25 -28 -26 -78 -1 -109 19 -23 24
-24 228 -30 l208 -6 -208 1 -209 1 -24 28 c-32 38 -32 90 1 122 l24 25 217 0
c210 0 219 -1 241 -22z m28 -80 c-8 -26 -44 -68 -58 -68 -5 0 2 9 16 20 13 11
28 31 31 45 4 14 9 25 12 25 3 0 2 -10 -1 -22z"/>
</g>
</svg>
