<?xml version="1.0" encoding="iso-8859-1"?>
<!-- Generator: Adobe Illustrator 19.0.0, SVG Export Plug-In . SVG Version: 6.00 Build 0)  -->
<svg version="1.1" id="Capa_1" xmlns="http://www.w3.org/2000/svg" xmlns:xlink="http://www.w3.org/1999/xlink" x="0px" y="0px"
	 viewBox="0 0 512.005 512.005" style="enable-background:new 0 0 512.005 512.005;" xml:space="preserve">
<g>
	<path style="fill:#37474F;" d="M461.852,355.712c-1.692-2.616-4.443-4.362-7.531-4.779c-40.621-5.306-69.25-42.537-63.944-83.158
		c3.748-28.694,23.84-52.588,51.465-61.205c5.61-1.798,8.701-7.803,6.903-13.413c-0.28-0.873-0.671-1.707-1.164-2.481
		c-18.641-33.642-51.786-56.779-89.792-62.677c-19.152,0.914-38.026,4.957-55.872,11.968c-12.817,5.158-26.351,8.317-40.128,9.365
		c-13.777-1.048-27.311-4.207-40.128-9.365c-17.846-7.011-36.72-11.054-55.872-11.968c-39.829,0-117.333,56.469-117.333,160
		c0,98.389,71.765,224,128,224c21.457,0.192,42.656-4.691,61.867-14.251c7.235-3.99,15.232-6.404,23.467-7.083
		c8.234,0.679,16.232,3.093,23.467,7.083c19.211,9.56,40.41,14.443,61.867,14.251c44.587,0,94.912-76.544,115.989-147.477
		C463.995,361.543,463.535,358.325,461.852,355.712z"/>
	<path style="fill:#37474F;" d="M251.121,128c64.772-0.071,117.263-52.561,117.333-117.333C368.454,4.776,363.679,0,357.788,0
		c-64.772,0.071-117.263,52.561-117.333,117.333C240.454,123.224,245.23,128,251.121,128z"/>
</g>
</svg>
