<?xml version="1.0" encoding="UTF-8"?>
<!DOCTYPE svg PUBLIC "-//W3C//DTD SVG 1.1//EN" "http://www.w3.org/Graphics/SVG/1.1/DTD/svg11.dtd">
<svg xmlns="http://www.w3.org/2000/svg" version="1.1" width="512px" height="512px" style="shape-rendering:geometricPrecision; text-rendering:geometricPrecision; image-rendering:optimizeQuality; fill-rule:evenodd; clip-rule:evenodd" xmlns:xlink="http://www.w3.org/1999/xlink">
<g><path style="opacity:0.999" fill="#f8edd6" d="M 56.5,-0.5 C 152.5,-0.5 248.5,-0.5 344.5,-0.5C 344.5,-0.166667 344.5,0.166667 344.5,0.5C 343.336,36.9977 343.169,73.6644 344,110.5C 346.833,118.667 352.333,124.167 360.5,127C 397.165,127.5 433.832,127.667 470.5,127.5C 470.5,195.167 470.5,262.833 470.5,330.5C 327.167,330.5 183.833,330.5 40.5,330.5C 40.8325,258.998 40.4992,187.665 39.5,116.5C 39.3334,83.8316 39.5,51.165 40,18.5C 42.1775,9.16343 47.6775,2.8301 56.5,-0.5 Z"/></g>
<g><path style="opacity:1" fill="#e8dbc4" d="M 344.5,0.5 C 353.5,8.83333 362.167,17.5 370.5,26.5C 403.833,60.1667 437.167,93.8333 470.5,127.5C 433.832,127.667 397.165,127.5 360.5,127C 352.333,124.167 346.833,118.667 344,110.5C 343.169,73.6644 343.336,36.9977 344.5,0.5 Z"/></g>
<g><path style="opacity:0.981" fill="#f0efef" d="M 370.5,26.5 C 441.89,63.4155 487.056,121.082 506,199.5C 508.254,210.576 510.087,221.576 511.5,232.5C 511.5,247.833 511.5,263.167 511.5,278.5C 507.89,312.915 498.057,345.582 482,376.5C 478.698,382.942 474.865,388.942 470.5,394.5C 470.5,373.167 470.5,351.833 470.5,330.5C 470.5,262.833 470.5,195.167 470.5,127.5C 437.167,93.8333 403.833,60.1667 370.5,26.5 Z"/></g>
<g><path style="opacity:1" fill="#5e5f71" d="M 238.5,42.5 C 248.343,41.8382 256.177,45.5049 262,53.5C 270.892,67.3984 273.558,82.3984 270,98.5C 267.179,111.963 263.346,125.13 258.5,138C 267.446,155.625 278.779,171.625 292.5,186C 318.032,186.307 342.699,190.974 366.5,200C 379.825,208.966 382.658,220.466 375,234.5C 366.461,242.786 356.294,245.62 344.5,243C 322.147,233.978 303.147,220.311 287.5,202C 265.545,201.232 244.212,204.565 223.5,212C 222.069,212.465 220.903,213.299 220,214.5C 209.953,236.266 198.619,257.266 186,277.5C 175.585,290.062 162.418,294.562 146.5,291C 131.022,282.845 127.522,271.011 136,255.5C 144.167,243.333 154.333,233.167 166.5,225C 180.482,215.423 195.315,207.256 211,200.5C 221.527,180.779 231.527,160.779 241,140.5C 241.667,139.5 241.667,138.5 241,137.5C 230.223,116.339 223.39,94.0062 220.5,70.5C 220.552,57.1536 226.552,47.8203 238.5,42.5 Z"/></g>
<g><path style="opacity:1" fill="#f6ebd5" d="M 240.5,57.5 C 243.862,57.0695 246.695,58.0695 249,60.5C 255.672,70.1915 258.006,80.8582 256,92.5C 254.76,101.794 252.426,110.794 249,119.5C 240.834,102.682 236.167,85.0156 235,66.5C 236.329,63.171 238.163,60.171 240.5,57.5 Z"/></g>
<g><path style="opacity:0.985" fill="#f0efef" d="M 39.5,116.5 C 40.4992,187.665 40.8325,258.998 40.5,330.5C 40.5,351.833 40.5,373.167 40.5,394.5C 23.3577,369.282 11.5244,341.615 5,311.5C 2.74641,300.424 0.913081,289.424 -0.5,278.5C -0.5,263.167 -0.5,247.833 -0.5,232.5C 3.8547,190.77 17.188,152.104 39.5,116.5 Z"/></g>
<g><path style="opacity:1" fill="#f4ead4" d="M 250.5,155.5 C 257.725,166.073 265.392,176.406 273.5,186.5C 259.03,188.597 244.696,191.097 230.5,194C 237.562,181.376 244.229,168.542 250.5,155.5 Z"/></g>
<g><path style="opacity:1" fill="#f5ead4" d="M 309.5,202.5 C 325.188,203.503 340.521,206.337 355.5,211C 362.16,213.287 364.993,217.787 364,224.5C 361.333,227.5 358,229.167 354,229.5C 349.292,229.092 344.792,227.926 340.5,226C 328.78,219.752 318.447,211.919 309.5,202.5 Z"/></g>
<g><path style="opacity:1" fill="#f6ebd5" d="M 197.5,222.5 C 198.376,222.369 199.043,222.702 199.5,223.5C 191.597,240.315 182.431,256.315 172,271.5C 165.372,277.346 157.872,278.846 149.5,276C 146.651,273.441 145.817,270.274 147,266.5C 151.655,257.837 157.822,250.337 165.5,244C 176.06,236.562 186.726,229.396 197.5,222.5 Z"/></g>
<g><path style="opacity:1" fill="#ff535d" d="M 40.5,330.5 C 183.833,330.5 327.167,330.5 470.5,330.5C 470.5,351.833 470.5,373.167 470.5,394.5C 436.751,446.72 390.085,482.22 330.5,501C 312.993,506.025 295.327,509.525 277.5,511.5C 262.833,511.5 248.167,511.5 233.5,511.5C 222.151,510.161 210.818,508.161 199.5,505.5C 197.162,503.96 194.495,503.294 191.5,503.5C 152.397,494.12 118.064,476.12 88.5,449.5C 87.4154,447.413 85.7488,446.08 83.5,445.5C 66.5426,430.557 52.2093,413.557 40.5,394.5C 40.5,373.167 40.5,351.833 40.5,330.5 Z"/></g>
<g><path style="opacity:1" fill="#f9ecd5" d="M 138.5,359.5 C 153.211,359.106 167.878,359.606 182.5,361C 197.156,367.806 203.323,379.306 201,395.5C 199.167,410.667 190.667,419.167 175.5,421C 168.842,421.5 162.175,421.666 155.5,421.5C 155.953,432.27 155.453,442.937 154,453.5C 149.899,456.291 145.399,457.125 140.5,456C 137.943,455.315 136.109,453.815 135,451.5C 134.333,422.167 134.333,392.833 135,363.5C 136.376,362.295 137.542,360.962 138.5,359.5 Z"/></g>
<g><path style="opacity:1" fill="#f9ecd5" d="M 228.5,359.5 C 239.505,359.333 250.505,359.5 261.5,360C 275.43,360.934 284.264,368.101 288,381.5C 288.667,398.167 288.667,414.833 288,431.5C 285.705,446.129 277.205,454.295 262.5,456C 251.167,456.667 239.833,456.667 228.5,456C 226.714,455.215 225.214,454.049 224,452.5C 223.333,422.833 223.333,393.167 224,363.5C 225.397,361.93 226.897,360.596 228.5,359.5 Z"/></g>
<g><path style="opacity:1" fill="#f9edd6" d="M 357.5,415.5 C 350.167,415.5 342.833,415.5 335.5,415.5C 335.5,427.167 335.5,438.833 335.5,450.5C 335.141,452.371 334.141,453.871 332.5,455C 326.341,457.712 320.841,456.879 316,452.5C 315.333,422.5 315.333,392.5 316,362.5C 316.903,361.299 318.069,360.465 319.5,360C 337.167,359.333 354.833,359.333 372.5,360C 377.746,365.634 377.746,371.301 372.5,377C 360.171,377.5 347.838,377.667 335.5,377.5C 335.5,384.833 335.5,392.167 335.5,399.5C 343.611,399.065 351.611,399.565 359.5,401C 361.456,404.595 361.956,408.428 361,412.5C 359.961,413.71 358.794,414.71 357.5,415.5 Z"/></g>
<g><path style="opacity:1" fill="#ff535e" d="M 155.5,377.5 C 161.176,377.334 166.843,377.501 172.5,378C 178.204,380.399 180.871,384.733 180.5,391C 181.163,397.684 178.496,402.351 172.5,405C 166.843,405.499 161.176,405.666 155.5,405.5C 155.5,396.167 155.5,386.833 155.5,377.5 Z"/></g>
<g><path style="opacity:1" fill="#ff525d" d="M 244.5,377.5 C 249.844,377.334 255.177,377.501 260.5,378C 262.624,379.122 264.457,380.622 266,382.5C 267.138,390.735 267.638,399.069 267.5,407.5C 267.623,416.239 267.123,424.905 266,433.5C 264.363,435.81 262.196,437.31 259.5,438C 254.511,438.499 249.511,438.666 244.5,438.5C 244.5,418.167 244.5,397.833 244.5,377.5 Z"/></g>
<g><path style="opacity:1" fill="#fd7c7e" d="M 357.5,415.5 C 350.687,416.491 343.687,416.825 336.5,416.5C 336.828,428.012 336.495,439.346 335.5,450.5C 335.5,438.833 335.5,427.167 335.5,415.5C 342.833,415.5 350.167,415.5 357.5,415.5 Z"/></g>
<g><path style="opacity:0.996" fill="#fd9392" d="M 83.5,445.5 C 85.7488,446.08 87.4154,447.413 88.5,449.5C 86.2512,448.92 84.5846,447.587 83.5,445.5 Z"/></g>
<g><path style="opacity:0.98" fill="#fc8b8a" d="M 191.5,503.5 C 194.495,503.294 197.162,503.96 199.5,505.5C 196.572,505.435 193.905,504.768 191.5,503.5 Z"/></g>
</svg>
