<?xml version="1.0" encoding="utf-8"?>
<!-- Generator: Adobe Illustrator 16.0.0, SVG Export Plug-In . SVG Version: 6.00 Build 0)  -->
<!DOCTYPE svg PUBLIC "-//W3C//DTD SVG 1.1//EN" "http://www.w3.org/Graphics/SVG/1.1/DTD/svg11.dtd">
<svg version="1.1" id="Layer_1" xmlns="http://www.w3.org/2000/svg" xmlns:xlink="http://www.w3.org/1999/xlink" x="0px" y="0px"
	 width="1125px" height="1125px" viewBox="0 0 1125 1125" enable-background="new 0 0 1125 1125" xml:space="preserve">
<g id="Layer_2_1_">
	<g>
		<rect x="3.062" y="2.062" fill="#BC1F27" width="1119.848" height="1119.848"/>
		<path fill="#FFFFFF" d="M316.016,459.458c-19.773-11.825-38.041-18.272-98.01-18.272h-92.856v373.57h71.146V677.191h38.904
			c39.121,0,54.379-4.3,70.503-12.468c38.474-19.347,60.827-59.107,60.827-108.541C366.745,513.191,348.904,478.802,316.016,459.458
			z M280.553,596.586c-9.674,15.697-18.273,19.347-47.288,19.347h-36.97V502.017h45.137c29.879,0,47.718,21.064,47.718,55.883
			C289.149,575.524,286.571,586.485,280.553,596.586z M125.149,850.006h16.337v151.532h-16.337V850.006z M310.855,888.694
			c-12.249,0-22.352,4.944-30.519,15.261c-8.597,10.961-12.249,23.004-12.249,41.487c0,36.538,16.978,58.46,45.137,58.46
			c13.109,0,25.358-4.944,34.39-13.755l-6.232-10.961c-7.094,7.091-15.048,10.318-24.935,10.318
			c-10.318,0-19.563-3.872-25.365-13.546c-3.437-5.801-4.727-13.752-4.727-24.07v-2.578h63.407v-2.367
			c-0.427-26.219-2.791-36.751-11.604-46.425C331.492,892.994,322.037,888.694,310.855,888.694z M286.571,936.414
			c0.858-22.785,9.028-34.181,23.426-34.181c7.74,0,14.831,3.657,18.275,9.681c3.004,5.366,4.51,12.676,4.726,24.5H286.571z
			 M444.339,905.248c1.722,3.865,2.361,8.381,2.361,12.896v83.395h-16.119V927.17c0-11.606-0.863-14.618-3.654-18.271
			c-2.153-2.793-6.448-4.729-11.175-4.729c-8.172,0-20.853,7.093-28.159,15.474v81.894h-15.479v-84.9
			c0-15.689-3.863-23.215-3.863-23.215l15.472-4.729c0,0,3.652,8.173,3.652,17.196c10.534-11.393,21.279-16.98,32.029-16.98
			C430.368,889.129,440.252,895.574,444.339,905.248z M387.593,463.755c0-24.716,19.347-44.489,42.557-44.489
			c22.786,0,41.054,19.986,41.054,44.489c0,24.721-18.915,44.71-42.125,44.71C406.508,508.465,387.593,488.476,387.593,463.755z
			 M395.331,544.36l67.923-11.396V814.54h-67.923V544.36z M490.766,891.709h26.222l-4.942,13.104h-21.927v70.937
			c0,12.249,3.012,16.328,13.114,16.328c4.511,0,3.223,0,6.232-1.501l2.148,10.961c-5.158,2.799-7.093,3.657-14.188,3.657
			c-5.371,0-9.453-1.079-13.323-3.01c-7.091-3.657-9.887-10.75-9.887-21.925v-75.447H460.89v-13.104h13.325v-41.703h16.335v41.703
			H490.766z M247.667,850.006h-15.906v36.537c0,7.955,0.211,16.983,0.211,16.983c-6.017-8.815-16.119-13.969-27.512-13.969
			c-7.307,0-13.107,1.931-19.558,6.875c-13.97,10.316-21.061,27.515-21.061,50.94c0,35.036,15.045,55.671,41.482,55.671
			c11.819,0,19.558-3.651,26.864-12.896c0.216,5.809,2.153,11.175,2.153,11.175h16.333c-2.364-6.445-3.007-16.546-3.007-35.459
			V850.006L247.667,850.006z M231.545,973.595c0,0-1.936,4.736-6.232,7.959c-6.448,5.158-11.177,7.088-19.563,7.088
			c-9.455,0-15.688-3.651-20.417-12.892c-3.225-6.45-4.083-15.91-4.083-28.807c0-15.474,1.722-23.426,6.448-31.807
			c4.297-7.524,10.961-11.395,18.915-11.395c12.036,0,19.558,3.651,24.716,11.395v58.458H231.545z M723.117,891.488l-34.823,113.92
			c-6.88,22.136-15.045,36.759-32.886,41.27l-4.729-11.608c9.888-3.439,15.045-8.163,19.565-20.206
			c-1.722-8.597-2.578-12.467-2.578-12.467c-1.297-7.091-6.666-28.586-10.103-39.547l-22.146-68.781l15.695-5.803l20.848,71.361
			c3.007,10.315,6.017,27.298,6.017,27.298h0.43c0,0,3.87-14.188,6.234-23.217l19.992-72.22H723.117L723.117,891.488z
			 M736.872,981.554c0-3.873-2.151-5.379-6.451-5.379h-6.445v18.275h3.228v-7.954h1.931l4.515,7.738h3.224l-4.511-7.957
			C735.155,986.062,736.872,984.561,736.872,981.554z M727.417,983.913v-5.16h2.793c1.717,0,3.438,0.434,3.438,2.58
			c0,2.364-1.722,2.798-3.438,2.798h-2.793V983.913z M729.997,969.3c-8.381,0-15.261,7.31-15.261,16.119
			c0,8.815,6.88,16.119,15.261,16.119s15.261-7.304,15.261-16.119C745.042,976.389,738.378,969.3,729.997,969.3z M729.997,998.32
			c-6.451,0-11.396-5.379-11.396-12.901s5.158-12.896,11.396-12.896c6.445,0,11.388,5.374,11.388,12.896
			S736.227,998.32,729.997,998.32z M894.428,744.466l-36.542-0.429c-7.094,0-11.175-2.794-11.175-6.446
			c0-7.522,9.669-13.973,26.864-22.569c5.158,0.645,7.089,0.645,10.103,0.645c55.242,0,96.075-34.389,96.075-81.677
			c0-18.271-5.158-32.243-15.256-45.14c4.081,0.435,11.177,1.506,17.836,1.506c18.704,0,32.891-6.017,47.72-20.418l-28.373-45.785
			c-15.689,15.048-35.032,23.645-53.736,23.645c-8.594,0-17.838-2.146-32.027-6.02c-18.699-4.727-32.022-6.88-46.641-6.88
			c-66.411,0-109.62,36.541-109.62,93.075c0,40.838,18.27,65.987,55.89,76.299c-42.773,11.829-47.718,28.591-47.718,46.216
			c0,18.913,7.522,31.172,19.771,35.896c12.251,5.374,32.027,7.951,62.549,8.597l29.015,0.643
			c26.872,0.434,47.72,8.172,47.72,32.888c0,11.394-6.666,21.496-16.769,27.946c-10.745,7.091-25.363,9.026-42.555,9.026
			c-31.385,0-48.791-11.825-48.791-33.96c0-7.522,0.429-11.175,3.009-17.626h-62.979c-2.578,5.367-6.017,12.896-6.017,27.944
			c0,18.696,7.088,34.82,21.276,48.789c23.429,23.215,61.475,29.665,98.447,29.665c40.624,0,79.742-9.674,102.524-35.471
			c14.185-16.119,20.849-33.747,20.849-56.954c0-24.726-7.094-43.631-22.354-58.679C954.823,751.346,933.976,744.9,894.428,744.466z
			 M828.007,628.187c0-25.793,14.834-40.84,40.624-40.84c26.008,0,41.053,15.047,41.053,40.84c0,25.363-14.615,39.118-41.695,39.118
			C844.131,667.522,828.007,656.343,828.007,628.187z M633.915,595.514c-13.76,0-31.385,9.674-47.288,24.721v194.521h-68.134V615.29
			c0-23.646-3.012-46.217-9.028-64.481l60.397-18.271c6.017,11.391,9.674,22.997,9.674,34.39
			c10.103-7.525,18.699-13.974,29.874-20.421c13.76-7.522,31.385-11.82,46.646-11.82c29.015,0,54.379,16.122,62.546,39.766
			c3.657,10.101,5.158,21.925,5.158,39.116V814.54H656.7V635.495C656.7,604.758,651.756,595.514,633.915,595.514z M599.094,904.605
			v70.924c0,12.254,3.012,16.34,13.115,16.34c4.51,0,3.218,0,6.231-1.506l2.149,10.959c-5.163,2.794-7.094,3.657-14.182,3.657
			c-5.379,0-9.465-1.077-13.331-3.007c-7.096-3.652-9.889-10.753-9.889-21.928v-75.439h-13.326v-13.117h13.326v-41.696h16.335
			v41.696h25.581l-4.949,13.117H599.094z M534.184,891.917l16.548-2.788v112.409h-16.548V891.917z"/>
	</g>
</g>
</svg>
