<?xml version="1.0" encoding="iso-8859-1"?>
<!-- Generator: Adobe Illustrator 19.0.0, SVG Export Plug-In . SVG Version: 6.00 Build 0)  -->
<svg version="1.1" id="Layer_1" xmlns="http://www.w3.org/2000/svg" xmlns:xlink="http://www.w3.org/1999/xlink" x="0px" y="0px"
	 viewBox="0 0 512 512" style="enable-background:new 0 0 512 512;" xml:space="preserve">
<path style="fill:#D7143A;" d="M363.493,0h-72.744C217.05,0,142.684,54.422,142.684,176.006c0,62.978,26.691,112.027,75.619,139.922
	l-89.552,162.091c-4.246,7.666-4.357,16.354-0.298,23.24c3.963,6.725,11.21,10.741,19.378,10.741h45.301
	c10.291,0,18.315-4.974,22.163-13.688L299.26,334.08h6.128v157.451c0,11.096,9.363,20.469,20.446,20.469h39.574
	c12.429,0,21.106-8.678,21.106-21.104V22.403C386.516,9.213,377.05,0,363.493,0z M305.388,261.126h-10.81
	c-41.915,0-66.938-34.214-66.938-91.523c0-71.259,31.61-96.648,61.194-96.648h16.554V261.126z"/>
</svg>
